<?xml version="1.0" standalone="no"?>
<!DOCTYPE svg PUBLIC "-//W3C//DTD SVG 20010904//EN"
 "http://www.w3.org/TR/2001/REC-SVG-20010904/DTD/svg10.dtd">
<svg version="1.0" xmlns="http://www.w3.org/2000/svg"
 width="1473.000000pt" height="926.000000pt" viewBox="0 0 1473.000000 926.000000"
 preserveAspectRatio="xMidYMid meet">

<g transform="translate(0.000000,926.000000) scale(0.100000,-0.100000)"
fill="#000000" stroke="none">
<path d="M0 8715 l0 -545 7365 0 7365 0 0 545 0 545 -7365 0 -7365 0 0 -545z
m723 384 c28 -13 57 -58 57 -90 l0 -23 -17 23 c-23 30 -54 61 -84 84 -23 17
-23 17 -2 17 12 0 33 -5 46 -11z m-101 -21 c-17 -17 -15 -33 3 -18 13 10 13 8
-1 -18 -29 -60 28 -117 88 -88 26 14 28 14 18 1 -13 -16 -1 -21 16 -7 5 4 -1
-3 -14 -15 -55 -54 -152 -2 -152 80 0 23 34 77 48 77 3 0 1 -5 -6 -12z m5998
-33 c0 -20 5 -25 25 -25 14 0 25 -4 25 -10 0 -5 -11 -10 -25 -10 -20 0 -25 -5
-25 -25 0 -14 -4 -25 -10 -25 -5 0 -10 11 -10 25 0 20 -5 25 -25 25 -14 0 -25
5 -25 10 0 6 11 10 25 10 20 0 25 5 25 25 0 14 5 25 10 25 6 0 10 -11 10 -25z
m-5689 -26 l15 -41 18 41 c11 22 23 41 28 41 4 0 7 -26 7 -57 -2 -54 -2 -55
-8 -18 l-7 40 -14 -37 c-8 -21 -18 -38 -22 -38 -4 0 -14 15 -22 33 l-14 32 -1
-32 c-2 -57 -21 -36 -21 22 0 67 19 74 41 14z m410 -14 c18 -48 17 -76 -2 -42
-13 22 -38 22 -55 0 -22 -31 -23 -10 -2 45 11 29 24 52 30 50 6 -2 19 -26 29
-53z m49 0 c0 -30 -4 -55 -10 -55 -5 0 -10 25 -10 55 0 30 5 55 10 55 6 0 10
-25 10 -55z m1808 38 c24 22 37 9 15 -15 -15 -17 -15 -19 0 -36 22 -24 9 -37
-15 -15 -17 15 -19 15 -36 0 -24 -22 -37 -9 -15 15 15 17 15 19 0 36 -22 24
-9 37 15 15 17 -15 19 -15 36 0z m1512 2 c0 -8 9 -15 19 -15 10 0 22 -7 25
-16 9 -25 7 -64 -4 -64 -5 0 -10 16 -10 35 0 24 -5 35 -15 35 -10 0 -15 -11
-15 -35 0 -19 -4 -35 -10 -35 -5 0 -10 25 -10 55 0 30 5 55 10 55 6 0 10 -7
10 -15z m397 3 c-3 -7 -13 -33 -22 -58 -17 -42 -45 -85 -33 -50 32 91 44 120
51 120 5 0 7 -6 4 -12z m42 -40 c-12 -29 -23 -59 -26 -65 -3 -7 -9 -13 -13
-13 -5 0 3 29 18 65 14 36 29 65 34 65 4 0 -2 -24 -13 -52z m1026 32 c10 11
20 18 23 15 3 -3 -3 -14 -13 -25 -17 -19 -17 -21 -2 -38 26 -28 20 -39 -6 -14
l-24 22 -18 -20 c-10 -11 -20 -18 -23 -15 -3 3 3 14 13 25 17 19 17 21 2 38
-26 28 -20 39 6 14 l24 -22 18 20z m-5046 -18 c-13 -5 -11 -46 3 -60 9 -9 8
-12 -5 -12 -13 0 -17 9 -17 35 0 19 -4 35 -10 35 -5 0 -10 -7 -10 -15 0 -9
-10 -15 -26 -15 -16 0 -24 -5 -21 -12 2 -7 15 -12 28 -10 17 2 21 0 12 -9 -18
-18 -58 -7 -61 19 -5 33 15 53 51 50 17 -1 32 3 34 9 4 10 8 10 18 0 7 -7 9
-13 4 -15z m3670 0 c-14 -5 -11 -60 4 -65 7 -3 5 -6 -5 -6 -14 -1 -18 7 -18
34 0 19 -5 35 -10 35 -7 0 -6 5 2 13 9 10 16 11 24 3 7 -6 8 -12 3 -14z m52
21 c5 -58 2 -93 -7 -93 -11 0 -23 68 -16 89 4 12 22 15 23 4z m918 -21 c-14
-5 -11 -60 4 -65 7 -3 5 -6 -5 -6 -14 -1 -18 7 -18 34 0 19 -5 35 -10 35 -7 0
-6 5 2 13 9 10 16 11 24 3 7 -6 8 -12 3 -14z m-5547 1 c17 -15 19 -15 38 2 31
28 37 8 7 -22 l-26 -27 -26 24 c-38 35 -31 58 7 23z m986 -36 c3 -37 2 -38
-25 -35 -37 4 -44 35 -9 44 14 3 23 10 20 16 -3 5 -12 7 -20 4 -8 -3 -14 -1
-14 5 0 6 10 9 23 7 18 -2 23 -10 25 -41z m2673 16 l11 -28 10 28 c5 15 14 27
19 27 5 0 2 -16 -6 -36 -8 -20 -15 -38 -15 -40 0 -2 -4 -4 -9 -4 -8 0 -31 52
-31 71 0 18 11 8 21 -18z m66 -35 c-2 -13 -4 -3 -4 22 0 25 2 35 4 23 2 -13 2
-33 0 -45z m81 50 c19 -19 14 -28 -18 -28 -23 0 -28 -4 -23 -16 3 -9 13 -14
24 -11 11 3 19 1 19 -5 0 -5 -12 -8 -27 -6 -29 3 -41 32 -29 64 7 17 38 18 54
2z m39 -15 l10 -28 6 28 c8 31 27 36 27 7 0 -11 5 -20 10 -20 6 0 10 9 10 20
0 11 5 20 11 20 6 0 8 -8 5 -17 -15 -55 -18 -63 -26 -63 -4 0 -11 12 -15 28
l-8 27 -6 -24 c-10 -39 -26 -35 -38 9 -11 45 0 55 14 13z m203 18 c0 -5 -9 -7
-20 -4 -26 7 -25 -4 2 -26 12 -10 18 -23 14 -29 -9 -14 -46 -16 -46 -2 0 5 7
7 15 4 20 -8 19 13 -2 24 -21 12 -10 42 17 42 11 0 20 -4 20 -9z m75 -31 c0
-32 -2 -35 -30 -35 -26 0 -30 4 -33 29 -4 32 12 48 43 44 16 -2 20 -11 20 -38z
m45 4 c0 -45 24 -42 28 4 5 46 22 39 22 -9 0 -39 -1 -40 -32 -37 -30 3 -33 6
-36 41 -2 21 1 37 7 37 6 0 11 -16 11 -36z m102 27 c-8 -5 -18 -24 -22 -42
l-8 -34 -1 43 c-1 37 2 42 22 42 16 0 18 -3 9 -9z m68 0 c0 -5 -8 -8 -17 -7
-13 1 -18 -6 -18 -24 0 -18 5 -25 18 -24 9 1 17 -2 17 -7 0 -15 -37 -10 -50 6
-18 21 2 65 30 65 11 0 20 -4 20 -9z m78 -13 c3 -14 -3 -18 -23 -18 -17 0 -25
-5 -22 -12 2 -7 13 -13 25 -12 12 0 19 -3 16 -8 -15 -23 -64 1 -64 32 0 39 61
54 68 18z m32 12 c0 -5 -4 -10 -10 -10 -5 0 -10 5 -10 10 0 6 5 10 10 10 6 0
10 -4 10 -10z m274 -12 c14 -23 -3 -52 -32 -56 -11 -2 -23 -11 -25 -20 -3 -9
-5 8 -6 39 -1 54 0 56 25 55 15 -1 32 -9 38 -18z m66 12 c0 -5 -6 -7 -14 -4
-8 3 -17 1 -20 -5 -4 -5 3 -13 14 -16 27 -9 22 -39 -8 -43 -12 -2 -22 1 -22 7
0 6 7 8 15 5 20 -8 19 13 -2 24 -21 12 -10 42 17 42 11 0 20 -4 20 -10z m30 0
c0 -5 -4 -10 -10 -10 -5 0 -10 5 -10 10 0 6 5 10 10 10 6 0 10 -4 10 -10z
m150 -10 c0 -11 5 -20 10 -20 6 0 10 9 10 20 0 29 19 24 27 -7 l6 -28 10 28
c11 34 38 33 48 -3 l6 -25 8 28 c4 15 11 27 15 27 4 0 11 -12 15 -27 l8 -28 6
25 c10 36 37 37 48 3 l10 -28 6 28 c8 31 27 36 27 7 0 -11 5 -20 10 -20 6 0
10 9 10 20 0 11 5 20 11 20 6 0 8 -9 5 -20 -3 -11 -9 -29 -12 -40 -8 -28 -21
-25 -29 8 l-8 27 -6 -24 c-10 -38 -26 -35 -37 6 l-10 38 -10 -34 c-11 -39 -34
-54 -34 -22 0 28 -16 27 -23 -1 -7 -26 -18 -18 -33 25 l-11 32 -8 -38 c-8 -41
-26 -45 -36 -6 l-6 24 -8 -27 c-10 -37 -21 -35 -34 3 -14 39 -14 49 -1 49 6 0
10 -9 10 -20z m449 -23 c-2 -42 -2 -42 -8 -8 -8 48 -31 53 -31 7 0 -20 -4 -36
-10 -36 -5 0 -10 16 -10 36 0 46 -23 41 -31 -7 l-6 -34 -2 40 -1 41 50 1 50 2
-1 -42z m79 31 c19 -19 14 -28 -18 -28 -23 0 -28 -4 -23 -16 3 -9 13 -14 24
-11 11 3 19 1 19 -5 0 -5 -12 -8 -27 -6 -29 3 -41 32 -29 64 7 17 38 18 54 2z
m109 6 c-3 -3 -12 -4 -19 -1 -8 3 -5 6 6 6 11 1 17 -2 13 -5z m-1634 -31 c-7
-2 -19 -2 -25 0 -7 3 -2 5 12 5 14 0 19 -2 13 -5z m1625 -4 c-10 -5 -18 -14
-18 -19 0 -5 8 -11 18 -13 16 -4 16 -5 -1 -6 -22 -1 -34 28 -16 40 8 5 19 9
24 9 6 -1 2 -5 -7 -11z m-1148 -29 c0 -5 -4 -10 -10 -10 -5 0 -10 5 -10 10 0
6 5 10 10 10 6 0 10 -4 10 -10z m370 0 c0 -5 -4 -10 -10 -10 -5 0 -10 5 -10
10 0 6 5 10 10 10 6 0 10 -4 10 -10z m480 0 c0 -5 -4 -10 -10 -10 -5 0 -10 5
-10 10 0 6 5 10 10 10 6 0 10 -4 10 -10z m-5271 -446 l-22 -24 51 0 c40 0 52
-4 52 -15 0 -11 -12 -15 -52 -15 l-51 0 21 -23 c37 -40 11 -40 -30 0 l-38 37
37 38 c39 40 70 42 32 2z m942 26 c13 -7 19 -7 19 0 0 5 5 10 10 10 6 0 10
-13 10 -30 0 -27 -3 -30 -30 -30 -16 0 -30 5 -30 10 0 6 5 10 11 10 5 0 7 5 4
10 -10 15 -46 12 -67 -7 -22 -20 -23 -51 -1 -75 23 -25 58 -22 81 7 21 27 32
32 32 15 0 -21 -49 -60 -75 -60 -33 0 -75 42 -75 75 0 31 41 75 70 75 12 0 30
-5 41 -10z m477 -12 c14 -14 -2 -48 -22 -48 -20 0 -37 25 -30 44 7 19 35 21
52 4z m822 -8 c0 -5 -4 -10 -10 -10 -5 0 -10 5 -10 10 0 6 5 10 10 10 6 0 10
-4 10 -10z m148 -13 c2 -10 -3 -26 -12 -36 -9 -10 -13 -21 -9 -24 3 -4 1 -7
-5 -7 -17 0 -15 20 4 41 20 22 10 39 -21 37 -21 -2 -29 -14 -52 -70 -14 -37
-30 -68 -34 -68 -5 0 1 24 12 53 12 28 25 62 29 74 7 17 16 21 47 20 28 -2 39
-7 41 -20z m350 -44 c-2 -65 -2 -66 -5 -15 -3 42 -7 52 -19 48 -19 -7 -18 4 4
20 9 7 18 14 20 14 1 0 1 -30 0 -67z m-1228 47 c0 -5 -16 -10 -35 -10 -19 0
-35 5 -35 10 0 6 16 10 35 10 19 0 35 -4 35 -10z m460 -5 c0 -8 8 -16 18 -16
16 -1 16 -2 -1 -6 -14 -3 -17 -13 -15 -36 3 -31 28 -52 28 -22 0 9 14 22 31
29 31 13 25 34 -6 22 -8 -3 -15 -1 -15 5 0 6 15 9 33 7 30 -3 32 -6 35 -44 l3
-42 -63 2 -63 1 -5 40 c-3 22 -4 48 -2 58 5 21 22 23 22 2z m-138 -29 c11 -16
10 -76 -1 -76 -6 0 -11 17 -13 38 -2 25 -8 37 -18 37 -10 0 -16 -12 -18 -37
-2 -21 -7 -38 -12 -38 -5 0 -10 17 -12 38 -2 20 -7 37 -13 37 -5 0 -11 -17
-13 -37 -4 -53 -22 -47 -22 7 l0 44 58 0 c31 -1 60 -6 64 -13z m96 -13 c3 -20
-1 -23 -28 -23 -21 0 -30 -4 -27 -12 2 -7 16 -12 31 -11 14 1 24 -2 21 -8 -9
-13 -49 -11 -63 3 -16 16 -15 51 0 66 21 21 63 10 66 -15z m270 -21 l3 -43
-33 3 c-25 2 -34 8 -36 25 -3 17 3 24 22 29 14 3 26 11 26 16 0 6 -11 7 -26 4
-17 -5 -23 -3 -19 4 4 6 19 10 33 8 24 -3 27 -8 30 -46z m42 3 c0 -25 -4 -45
-10 -45 -5 0 -10 20 -10 45 0 25 5 45 10 45 6 0 10 -20 10 -45z m248 -2 c2
-26 -1 -43 -7 -43 -6 0 -11 18 -11 41 0 33 -3 40 -17 37 -13 -2 -19 -14 -21
-41 -4 -52 -22 -47 -22 7 l0 44 38 -1 c36 -2 37 -3 40 -44z m59 35 c-11 -6
-17 -22 -17 -43 0 -19 -4 -35 -10 -35 -5 0 -10 20 -10 44 0 40 2 44 27 44 21
0 23 -2 10 -10z m106 -5 c-13 -2 -35 -2 -50 0 -16 2 -5 4 22 4 28 0 40 -2 28
-4z m-1144 -27 c15 -18 4 -46 -18 -46 -27 0 -42 20 -30 42 12 21 32 23 48 4z
m-69 -16 c0 -5 -16 -10 -35 -10 -19 0 -35 5 -35 10 0 6 16 10 35 10 19 0 35
-4 35 -10z m1213 3 c-13 -2 -35 -2 -50 0 -16 2 -5 4 22 4 28 0 40 -2 28 -4z
m-533 -23 c0 -5 -7 -10 -15 -10 -8 0 -15 5 -15 10 0 6 7 10 15 10 8 0 15 -4
15 -10z m250 0 c0 -5 -4 -10 -10 -10 -5 0 -10 5 -10 10 0 6 5 10 10 10 6 0 10
-4 10 -10z"/>
<path d="M1305 9017 c-8 -19 -2 -31 13 -26 5 2 6 13 2 24 -7 19 -8 19 -15 2z"/>
<path d="M1045 9010 c-3 -5 1 -10 9 -10 9 0 16 5 16 10 0 6 -4 10 -9 10 -6 0
-13 -4 -16 -10z"/>
<path d="M1170 8975 c0 -8 4 -15 9 -15 5 0 11 7 15 15 3 9 0 15 -9 15 -8 0
-15 -7 -15 -15z"/>
<path d="M3985 9010 c-3 -5 3 -10 14 -10 12 0 21 5 21 10 0 6 -6 10 -14 10 -8
0 -18 -4 -21 -10z"/>
<path d="M4297 9005 c-9 -22 3 -46 22 -43 10 2 16 13 16 28 0 28 -29 40 -38
15z"/>
<path d="M4595 9010 c-3 -5 3 -10 15 -10 12 0 18 5 15 10 -3 6 -10 10 -15 10
-5 0 -12 -4 -15 -10z"/>
<path d="M4894 9006 c-8 -22 3 -49 19 -43 6 2 12 14 12 27 0 27 -22 39 -31 16z"/>
<path d="M5675 9010 c-3 -5 3 -10 14 -10 12 0 21 5 21 10 0 6 -6 10 -14 10 -8
0 -18 -4 -21 -10z"/>
<path d="M1630 8510 c0 -5 4 -10 9 -10 6 0 13 5 16 10 3 6 -1 10 -9 10 -9 0
-16 -4 -16 -10z"/>
<path d="M2280 8440 c-12 -7 -12 -12 -2 -22 10 -10 15 -10 22 2 19 29 9 39
-20 20z"/>
<path d="M2127 8465 c-5 -10 0 -15 14 -15 12 0 19 5 17 12 -6 18 -25 20 -31 3z"/>
<path d="M2403 8435 c-3 -9 -3 -18 0 -21 9 -9 27 6 27 22 0 19 -19 18 -27 -1z"/>
<path d="M1725 8430 c-3 -5 1 -10 9 -10 9 0 16 5 16 10 0 6 -4 10 -9 10 -6 0
-13 -4 -16 -10z"/>
<path d="M2582 7858 c-17 -17 -15 -53 3 -68 20 -17 62 -5 70 21 13 40 -44 76
-73 47z"/>
<path d="M270 7310 c-25 -25 -26 -72 -2 -93 40 -37 112 -6 112 47 0 27 -42 66
-71 66 -11 0 -28 -9 -39 -20z"/>
<path d="M551 7296 c-20 -24 -6 -62 30 -76 47 -20 331 -8 366 16 l27 17 -22
17 c-22 18 -56 22 -283 36 -88 5 -107 3 -118 -10z"/>
<path d="M1161 7289 c-64 -9 -91 -28 -66 -49 20 -16 264 -32 385 -25 47 3 114
2 150 -2 61 -8 370 1 416 12 31 7 37 32 14 55 -19 19 -36 19 -432 18 -227 -1
-437 -5 -467 -9z"/>
<path d="M10865 6980 c-185 -28 -356 -136 -491 -312 l-45 -58 201 0 201 0 27
25 c30 29 120 60 203 70 96 12 227 -23 285 -76 19 -18 35 -19 208 -17 l188 3
-97 102 c-144 153 -260 223 -427 257 -81 17 -168 19 -253 6z"/>
<path d="M270 6583 c-54 -21 -82 -89 -60 -143 34 -83 170 -79 206 6 18 43 10
74 -26 109 -28 27 -88 41 -120 28z"/>
<path d="M1935 6519 c-38 -5 -138 -7 -221 -3 -146 6 -184 2 -341 -32 -38 -8
-26 -23 33 -40 42 -12 119 -17 322 -21 408 -9 388 -10 411 11 27 25 27 62 0
77 -30 16 -121 19 -204 8z"/>
<path d="M711 6500 c-123 -17 -107 -49 31 -61 117 -11 133 -11 300 -5 139 5
178 14 178 41 0 20 -30 26 -130 24 -47 -1 -137 1 -200 4 -63 3 -144 2 -179 -3z"/>
<path d="M5350 6115 c0 -78 3 -95 15 -95 12 0 15 17 15 95 0 78 -3 95 -15 95
-12 0 -15 -17 -15 -95z"/>
<path d="M6460 6195 c0 -8 7 -15 15 -15 8 0 15 7 15 15 0 8 -7 15 -15 15 -8 0
-15 -7 -15 -15z"/>
<path d="M6820 6195 c0 -8 7 -15 15 -15 8 0 15 7 15 15 0 8 -7 15 -15 15 -8 0
-15 -7 -15 -15z"/>
<path d="M6100 6180 c0 -11 -4 -20 -10 -20 -5 0 -10 -7 -10 -15 0 -8 5 -15 10
-15 6 0 10 -19 10 -43 0 -24 5 -48 12 -55 17 -17 48 -15 48 3 0 8 -7 15 -15
15 -11 0 -15 11 -15 40 0 29 4 40 15 40 8 0 15 7 15 15 0 8 -7 15 -15 15 -8 0
-15 9 -15 20 0 11 -7 20 -15 20 -8 0 -15 -9 -15 -20z"/>
<path d="M13427 6173 c-4 -3 5 -19 20 -35 l27 -28 -27 -28 c-35 -37 -22 -50
15 -15 l28 27 30 -29 c35 -33 42 -14 8 22 l-21 23 21 23 c34 36 27 55 -8 22
l-30 -29 -28 27 c-16 15 -32 24 -35 20z"/>
<path d="M5420 6089 c0 -55 3 -69 15 -69 11 0 15 12 15 48 0 50 13 74 36 65
10 -3 14 -22 14 -59 0 -41 4 -54 15 -54 11 0 15 12 15 48 0 50 13 74 36 65 10
-3 14 -22 14 -59 0 -41 4 -54 15 -54 11 0 15 13 15 54 0 30 -3 61 -6 70 -7 18
-59 22 -69 6 -5 -7 -11 -8 -19 -1 -6 5 -31 10 -54 9 l-42 0 0 -69z"/>
<path d="M5640 6063 c0 -76 3 -93 15 -93 10 0 15 10 15 29 0 28 2 29 33 24 43
-7 67 16 67 63 0 61 -13 74 -75 72 l-55 -2 0 -93z m100 27 c0 -38 -31 -57 -54
-34 -33 33 -4 94 35 74 12 -7 19 -21 19 -40z"/>
<path d="M5816 6144 c-9 -9 -16 -32 -16 -54 0 -45 21 -70 58 -70 33 0 45 8 61
38 14 27 8 63 -15 86 -20 20 -68 20 -88 0z m61 -12 c23 -15 21 -77 -3 -86 -36
-14 -62 52 -32 82 14 14 19 14 35 4z"/>
<path d="M5960 6141 c-15 -28 -3 -48 36 -61 19 -6 34 -15 34 -20 0 -17 -22
-22 -46 -9 -29 15 -42 6 -24 -16 17 -21 79 -16 94 8 15 24 -3 49 -42 59 -18 5
-32 13 -32 19 0 15 30 23 43 10 6 -6 17 -11 24 -11 11 0 11 5 3 20 -15 27 -75
28 -90 1z"/>
<path d="M6196 6144 c-23 -23 -20 -25 23 -18 30 5 39 3 44 -10 5 -12 0 -16
-19 -16 -36 0 -64 -17 -64 -39 0 -28 22 -40 68 -38 l42 1 0 56 c0 31 -5 61
-12 68 -17 17 -64 15 -82 -4z m64 -84 c-11 -21 -35 -27 -45 -10 -10 16 4 30
31 30 22 0 23 -3 14 -20z"/>
<path d="M6330 6145 c0 -10 10 -15 31 -15 l31 0 -36 -44 c-20 -24 -36 -49 -36
-55 0 -7 22 -11 55 -11 42 0 55 3 55 15 0 10 -10 15 -30 15 -37 0 -37 6 0 50
43 49 39 60 -20 60 -38 0 -50 -4 -50 -15z"/>
<path d="M6460 6090 c0 -56 3 -70 15 -70 12 0 15 14 15 70 0 56 -3 70 -15 70
-12 0 -15 -14 -15 -70z"/>
<path d="M6538 6150 c-34 -21 -31 -98 6 -122 20 -14 63 -8 79 10 23 25 22 85
-1 105 -21 19 -58 22 -84 7z m60 -22 c23 -23 9 -88 -19 -88 -14 0 -39 32 -39
50 0 18 25 50 39 50 4 0 12 -5 19 -12z"/>
<path d="M6670 6088 c0 -54 3 -68 15 -68 11 0 15 12 15 50 0 38 4 52 18 59 28
15 42 -6 42 -61 0 -36 4 -48 15 -48 11 0 15 12 15 51 0 75 -10 88 -70 87 l-50
-1 0 -69z"/>
<path d="M6820 6090 c0 -56 3 -70 15 -70 12 0 15 14 15 70 0 56 -3 70 -15 70
-12 0 -15 -14 -15 -70z"/>
<path d="M5416 5495 c-3 -8 -14 -15 -24 -15 -29 0 -48 -26 -32 -45 10 -12 10
-18 0 -30 -16 -19 3 -45 32 -45 10 0 21 -7 24 -15 4 -8 14 -15 24 -15 10 0 20
7 24 15 3 8 14 15 25 15 26 0 45 32 29 48 -9 9 -9 15 0 24 16 16 -3 48 -29 48
-11 0 -22 7 -25 15 -4 8 -14 15 -24 15 -10 0 -20 -7 -24 -15z m44 -75 c0 -13
-7 -20 -20 -20 -13 0 -20 7 -20 20 0 13 7 20 20 20 13 0 20 -7 20 -20z"/>
<path d="M5653 5430 c0 -36 2 -50 4 -32 2 17 2 47 0 65 -2 17 -4 3 -4 -33z"/>
<path d="M5793 5476 c-11 -19 -4 -106 8 -106 5 0 9 18 9 40 0 25 5 40 13 40 8
0 7 4 -3 10 -13 9 -13 11 0 20 13 8 13 10 -2 10 -9 0 -21 -7 -25 -14z"/>
<path d="M7143 5430 c0 -36 2 -50 4 -32 2 17 2 47 0 65 -2 17 -4 3 -4 -33z"/>
<path d="M7180 5479 c0 -5 5 -7 10 -4 6 3 10 8 10 11 0 2 -4 4 -10 4 -5 0 -10
-5 -10 -11z"/>
<path d="M9230 5452 c0 -26 -3 -28 -30 -24 -24 3 -32 0 -42 -22 -8 -19 -9 -35
-2 -54 8 -24 15 -27 57 -29 l47 -2 0 80 c0 64 -3 79 -15 79 -10 0 -15 -10 -15
-28z m-5 -77 c0 -23 -4 -30 -20 -30 -21 0 -31 25 -21 51 11 28 41 12 41 -21z"/>
<path d="M9349 5458 c-7 -13 -17 -27 -23 -31 -8 -6 -7 -10 2 -14 7 -3 12 -23
12 -49 0 -32 4 -44 15 -44 11 0 15 12 15 45 0 33 4 45 15 45 8 0 15 5 15 10 0
6 -7 10 -15 10 -20 0 -19 20 3 36 16 12 15 13 -5 14 -13 0 -27 -9 -34 -22z"/>
<path d="M10092 5468 c-7 -7 -12 -17 -12 -24 0 -7 -6 -15 -12 -18 -10 -5 -10
-7 0 -12 7 -3 12 -24 12 -50 0 -32 4 -44 15 -44 11 0 15 12 15 44 0 26 5 47
13 50 10 5 10 7 0 12 -15 7 -17 34 -3 34 6 0 10 5 10 10 0 14 -23 13 -38 -2z"/>
<path d="M10200 5400 c0 -64 3 -80 15 -80 12 0 15 16 15 80 0 64 -3 80 -15 80
-12 0 -15 -16 -15 -80z"/>
<path d="M8850 5396 c0 -86 17 -104 22 -23 l3 52 20 -52 c11 -29 25 -53 32
-53 6 0 20 24 30 53 l18 52 3 -52 c5 -81 22 -63 22 22 0 95 -18 100 -49 14
-13 -33 -25 -59 -27 -56 -2 2 -12 28 -23 58 -10 32 -25 55 -34 57 -15 3 -17
-7 -17 -72z"/>
<path d="M9280 5460 c0 -5 7 -10 15 -10 8 0 15 5 15 10 0 6 -7 10 -15 10 -8 0
-15 -4 -15 -10z"/>
<path d="M9410 5460 c0 -5 7 -10 15 -10 8 0 15 5 15 10 0 6 -7 10 -15 10 -8 0
-15 -4 -15 -10z"/>
<path d="M10150 5460 c0 -5 7 -10 15 -10 8 0 15 5 15 10 0 6 -7 10 -15 10 -8
0 -15 -4 -15 -10z"/>
<path d="M5691 5411 c1 -25 3 -37 6 -26 2 11 6 30 9 43 8 39 38 23 45 -23 l7
-40 -2 45 c-1 44 -2 45 -33 46 -33 1 -33 1 -32 -45z"/>
<path d="M5852 5448 c-7 -7 -12 -21 -12 -33 0 -46 53 -62 71 -21 21 45 -26 87
-59 54z m43 -33 c0 -33 -28 -47 -39 -19 -10 25 3 56 22 52 11 -2 17 -13 17
-33z"/>
<path d="M5942 5410 c1 -40 2 -41 5 -10 2 19 11 40 20 47 13 10 13 12 -6 10
-18 -1 -21 -7 -19 -47z"/>
<path d="M6001 5411 l2 -46 6 40 c4 26 11 40 21 40 10 0 17 -14 21 -40 l5 -40
5 40 c3 27 9 40 19 40 10 0 17 -14 21 -40 l7 -40 -2 45 -1 45 -52 1 -53 1 1
-46z"/>
<path d="M6146 5452 c-3 -5 4 -8 16 -8 12 1 23 -5 25 -11 3 -8 -5 -13 -20 -13
-25 0 -42 -23 -31 -41 3 -5 19 -8 35 -7 28 2 30 4 27 43 -2 32 -7 41 -25 43
-11 2 -24 -1 -27 -6z m42 -54 c-7 -19 -38 -22 -38 -4 0 10 9 16 21 16 12 0 19
-5 17 -12z"/>
<path d="M6248 5453 c22 -4 22 -5 4 -31 -36 -52 -36 -52 5 -51 35 1 36 2 10 8
l-29 6 21 27 c28 35 26 48 -6 47 -24 -2 -25 -2 -5 -6z"/>
<path d="M6313 5415 c0 -27 2 -38 4 -22 2 15 2 37 0 50 -2 12 -4 0 -4 -28z"/>
<path d="M6349 5439 c-8 -16 -8 -28 0 -45 18 -41 71 -25 71 21 0 44 -50 61
-71 24z m56 -8 c8 -26 -5 -53 -24 -49 -29 6 -27 68 3 68 8 0 17 -8 21 -19z"/>
<path d="M6440 5414 c0 -54 18 -59 22 -6 4 52 31 50 39 -3 l7 -40 -2 45 c-1
44 -2 45 -33 46 -32 1 -33 0 -33 -42z"/>
<path d="M6543 5415 c0 -27 2 -38 4 -22 2 15 2 37 0 50 -2 12 -4 0 -4 -28z"/>
<path d="M6622 5448 c-30 -30 -2 -86 37 -73 17 5 20 3 15 -10 -5 -11 -15 -15
-30 -12 -13 2 -21 0 -18 -4 8 -13 38 -11 52 3 7 7 12 34 12 60 0 46 -1 48 -28
48 -15 0 -33 -5 -40 -12z m47 -12 c13 -16 -1 -56 -19 -56 -17 0 -29 34 -19 52
12 22 23 23 38 4z"/>
<path d="M6722 5448 c-15 -15 -16 -50 0 -66 15 -15 45 -16 53 -2 4 6 -3 9 -16
7 -12 -1 -24 4 -26 11 -3 8 6 12 26 12 27 0 30 2 22 23 -9 25 -40 34 -59 15z
m46 -16 c2 -7 -6 -12 -17 -12 -21 0 -27 11 -14 24 9 9 26 2 31 -12z"/>
<path d="M6811 5410 l2 -45 6 40 c4 27 12 41 24 43 14 3 17 -4 17 -37 0 -23 5
-41 10 -41 12 0 13 60 2 78 -5 6 -20 11 -35 10 -25 -2 -27 -5 -26 -48z"/>
<path d="M6912 5448 c-13 -13 -16 -37 -6 -62 7 -18 49 -22 59 -6 4 7 -2 9 -18
5 -17 -5 -26 -2 -30 9 -5 12 0 16 24 16 26 0 30 3 27 23 -3 25 -36 35 -56 15z
m46 -15 c2 -8 -6 -13 -22 -13 -19 0 -24 4 -19 15 6 18 34 16 41 -2z"/>
<path d="M7002 5410 c1 -40 2 -41 5 -10 2 19 11 40 20 47 13 10 13 12 -6 10
-18 -1 -21 -7 -19 -47z"/>
<path d="M7055 5450 c-4 -6 3 -9 16 -7 29 3 36 -21 7 -25 -15 -2 -23 -10 -23
-23 0 -16 7 -20 33 -22 28 -1 32 2 32 24 0 13 -5 33 -10 44 -11 20 -45 26 -55
9z m45 -50 c0 -12 -28 -25 -36 -17 -9 9 6 27 22 27 8 0 14 -5 14 -10z"/>
<path d="M7183 5415 c0 -27 2 -38 4 -22 2 15 2 37 0 50 -2 12 -4 0 -4 -28z"/>
<path d="M9038 5405 c-17 -38 0 -79 35 -83 37 -5 57 14 57 52 0 39 -15 56 -52
56 -21 0 -32 -7 -40 -25z m67 -30 c0 -23 -5 -31 -21 -33 -24 -3 -38 20 -28 50
4 13 13 18 27 16 17 -2 22 -10 22 -33z"/>
<path d="M9280 5375 c0 -42 3 -55 15 -55 12 0 15 13 15 55 0 42 -3 55 -15 55
-12 0 -15 -13 -15 -55z"/>
<path d="M9410 5375 c0 -42 3 -55 15 -55 12 0 15 13 15 55 0 42 -3 55 -15 55
-12 0 -15 -13 -15 -55z"/>
<path d="M9476 5414 c-34 -33 -9 -94 38 -94 24 0 54 26 43 37 -4 3 -13 0 -22
-7 -21 -18 -45 -5 -45 25 0 30 24 43 45 25 20 -17 32 -5 15 15 -16 20 -54 19
-74 -1z"/>
<path d="M9590 5415 c-11 -13 -8 -14 18 -9 17 4 32 1 36 -5 5 -7 -2 -11 -17
-11 -29 0 -50 -22 -45 -47 2 -14 13 -18 46 -19 l42 -2 0 42 c0 23 -5 47 -12
54 -17 17 -53 15 -68 -3z m58 -57 c-5 -15 -48 -24 -48 -10 0 14 12 22 33 22
10 0 17 -5 15 -12z"/>
<path d="M9740 5354 c0 -59 3 -74 15 -74 9 0 15 9 15 24 0 19 4 22 23 19 34
-6 51 12 51 52 0 43 -14 54 -66 53 l-38 0 0 -74z m75 21 c0 -23 -4 -30 -20
-30 -21 0 -31 25 -21 51 11 28 41 12 41 -21z"/>
<path d="M9870 5373 c0 -29 5 -53 10 -53 6 0 10 14 10 30 0 17 9 39 20 50 26
26 26 27 -10 27 -30 0 -30 -1 -30 -54z"/>
<path d="M9953 5404 c-15 -24 -15 -29 -2 -53 28 -49 99 -32 99 24 0 55 -67 75
-97 29z m62 -29 c0 -23 -4 -30 -20 -30 -21 0 -31 25 -21 51 11 28 41 12 41
-21z"/>
<path d="M10150 5375 c0 -42 3 -55 15 -55 12 0 15 13 15 55 0 42 -3 55 -15 55
-12 0 -15 -13 -15 -55z"/>
<path d="M10258 5405 c-17 -38 0 -79 35 -83 37 -5 57 14 57 52 0 39 -15 56
-52 56 -21 0 -32 -7 -40 -25z m67 -30 c0 -23 -5 -31 -21 -33 -24 -3 -38 20
-28 50 4 13 13 18 27 16 17 -2 22 -10 22 -33z"/>
<path d="M13390 5300 l35 -30 -35 -30 c-19 -16 -30 -30 -25 -30 6 1 26 14 45
30 l34 30 -34 30 c-19 16 -39 29 -45 30 -5 0 6 -13 25 -30z"/>
<path d="M8928 5203 c7 -3 16 -2 19 1 4 3 -2 6 -13 5 -11 0 -14 -3 -6 -6z"/>
<path d="M9703 5140 c0 -41 2 -58 4 -37 2 20 2 54 0 75 -2 20 -4 3 -4 -38z"/>
<path d="M9038 5177 c-2 -7 -1 -34 3 -62 l6 -50 1 47 c1 25 6 48 11 50 5 2 3
8 -4 15 -10 9 -14 9 -17 0z"/>
<path d="M9103 5120 c0 -30 2 -43 4 -27 2 15 2 39 0 55 -2 15 -4 2 -4 -28z"/>
<path d="M9168 5163 c7 -3 16 -2 19 1 4 3 -2 6 -13 5 -11 0 -14 -3 -6 -6z"/>
<path d="M9268 5163 c7 -3 16 -2 19 1 4 3 -2 6 -13 5 -11 0 -14 -3 -6 -6z"/>
<path d="M9368 5163 c7 -3 16 -2 19 1 4 3 -2 6 -13 5 -11 0 -14 -3 -6 -6z"/>
<path d="M9449 5153 c-12 -16 -12 -17 1 -7 8 6 22 14 30 17 13 5 12 6 -1 6 -9
1 -23 -7 -30 -16z"/>
<path d="M9599 5153 c-12 -16 -12 -17 1 -7 8 6 22 14 30 17 13 5 12 6 -1 6 -9
1 -23 -7 -30 -16z"/>
<path d="M9740 5163 c8 -3 22 -11 30 -17 13 -10 13 -9 1 7 -7 9 -21 17 -30 16
-13 0 -14 -1 -1 -6z"/>
<path d="M8954 5121 c0 -21 7 -36 16 -38 10 -3 11 -2 3 4 -6 4 -13 22 -16 38
-4 27 -5 27 -3 -4z"/>
<path d="M9240 5141 c0 -10 19 -25 25 -20 1 2 -3 10 -11 17 -8 7 -14 8 -14 3z"/>
<path d="M9160 5126 c0 -2 11 -6 25 -8 14 -3 25 -1 25 3 0 5 -11 9 -25 9 -14
0 -25 -2 -25 -4z"/>
<path d="M9452 5084 c9 -9 21 -15 27 -13 6 2 -2 10 -17 17 -25 11 -25 11 -10
-4z"/>
<path d="M9602 5084 c9 -9 21 -15 27 -13 6 2 -2 10 -17 17 -25 11 -25 11 -10
-4z"/>
<path d="M9750 5084 c-17 -9 -20 -14 -9 -14 9 0 22 7 29 15 15 18 13 18 -20
-1z"/>
<path d="M8908 5083 c7 -3 16 -2 19 1 4 3 -2 6 -13 5 -11 0 -14 -3 -6 -6z"/>
<path d="M9148 5078 c5 -5 16 -8 23 -6 8 3 3 7 -10 11 -17 4 -21 3 -13 -5z"/>
<path d="M9268 5073 c7 -3 16 -2 19 1 4 3 -2 6 -13 5 -11 0 -14 -3 -6 -6z"/>
<path d="M9368 5073 c7 -3 16 -2 19 1 4 3 -2 6 -13 5 -11 0 -14 -3 -6 -6z"/>
<path d="M5412 4998 c-7 -7 -12 -20 -12 -30 0 -10 -7 -18 -16 -18 -12 0 -14
-10 -12 -52 l3 -53 65 0 65 0 3 48 c2 35 -1 49 -12 53 -9 3 -16 14 -16 23 0
21 -19 41 -40 41 -9 0 -21 -5 -28 -12z m52 -23 c6 -18 -16 -30 -39 -21 -20 7
-8 36 15 36 10 0 21 -7 24 -15z m31 -80 l0 -40 -55 0 c-53 0 -55 1 -58 28 -6
51 3 58 60 55 l53 -3 0 -40z"/>
<path d="M5428 4915 c-8 -9 3 -45 13 -45 5 0 9 7 9 15 0 8 0 18 1 22 1 10 -16
15 -23 8z"/>
<path d="M5650 4930 c0 -60 0 -60 29 -60 37 0 61 23 61 60 0 37 -24 60 -61 60
-29 0 -29 0 -29 -60z m64 34 c21 -20 20 -48 0 -69 -25 -25 -49 -15 -52 24 -6
59 18 80 52 45z"/>
<path d="M5858 4970 c-2 -7 -1 -31 2 -54 4 -31 10 -41 25 -44 18 -2 18 -2 3 8
-11 6 -18 23 -18 40 0 22 5 30 18 31 13 0 14 2 2 6 -8 3 -18 10 -21 16 -4 5
-8 4 -11 -3z"/>
<path d="M5776 4952 c-3 -5 4 -8 16 -8 12 1 23 -5 25 -11 3 -8 -5 -13 -20 -13
-25 0 -42 -23 -31 -41 3 -5 19 -8 35 -7 28 2 30 4 27 43 -2 32 -7 41 -25 43
-11 2 -24 -1 -27 -6z m42 -54 c-7 -19 -38 -22 -38 -4 0 10 9 16 21 16 12 0 19
-5 17 -12z"/>
<path d="M5923 4915 c0 -27 2 -38 4 -22 2 15 2 37 0 50 -2 12 -4 0 -4 -28z"/>
<path d="M6002 4948 c-13 -13 -15 -37 -6 -62 7 -17 49 -22 59 -7 3 6 -7 9 -21
8 -15 -1 -29 4 -31 11 -3 8 6 12 26 12 31 0 36 6 25 34 -7 19 -35 21 -52 4z
m46 -15 c2 -8 -6 -13 -22 -13 -25 0 -33 10 -19 24 10 10 36 3 41 -11z"/>
<path d="M6120 4898 c0 -32 4 -58 10 -58 6 0 10 7 10 15 0 8 8 15 18 15 24 0
42 19 42 46 0 28 -21 45 -54 42 -25 -2 -26 -5 -26 -60z m65 33 c7 -24 -3 -51
-21 -51 -20 0 -34 31 -23 52 13 23 36 23 44 -1z"/>
<path d="M6220 4913 c0 -24 5 -43 10 -43 6 0 10 15 10 33 0 18 5 38 11 44 9 9
7 12 -10 10 -18 -1 -21 -7 -21 -44z"/>
<path d="M6280 4915 c0 -25 5 -45 10 -45 6 0 10 20 10 45 0 25 -4 45 -10 45
-5 0 -10 -20 -10 -45z"/>
<path d="M6321 4956 c-2 -17 22 -86 30 -86 4 0 14 20 22 45 9 25 12 45 8 45
-4 0 -12 -17 -18 -37 -8 -32 -11 -35 -17 -18 -16 42 -25 60 -25 51z"/>
<path d="M6410 4952 c0 -5 10 -8 21 -8 33 1 35 -22 2 -26 -20 -2 -28 -9 -28
-23 0 -16 7 -20 33 -21 29 -1 32 2 32 27 0 43 -10 59 -36 59 -13 0 -24 -4 -24
-8z m44 -57 c-7 -16 -30 -20 -38 -6 -7 11 4 21 25 21 12 0 16 -5 13 -15z"/>
<path d="M6500 4939 c-17 -31 2 -72 32 -67 12 2 24 10 26 18 5 13 3 13 -12 0
-16 -13 -20 -12 -32 4 -9 13 -10 24 -3 37 11 22 20 24 38 7 11 -11 13 -10 9 2
-7 24 -45 24 -58 -1z"/>
<path d="M6581 4954 c-1 -6 6 -30 13 -53 14 -37 13 -41 -2 -50 -16 -10 -16
-10 0 -11 11 0 22 19 36 60 12 33 16 60 11 60 -5 0 -9 -8 -9 -17 0 -10 -4 -24
-9 -32 -7 -11 -13 -7 -24 20 -9 19 -16 29 -16 23z"/>
<path d="M8300 4540 c0 -40 4 -70 10 -70 6 0 10 30 10 70 0 40 -4 70 -10 70
-6 0 -10 -30 -10 -70z"/>
<path d="M8350 4540 c0 -40 4 -70 10 -70 6 0 10 30 10 70 0 40 -4 70 -10 70
-6 0 -10 -30 -10 -70z"/>
<path d="M12896 4584 c-22 -22 -30 -59 -16 -83 15 -28 34 -26 60 6 l22 28 20
-28 c38 -52 89 -21 67 42 -13 38 -44 58 -64 41 -10 -8 -19 -8 -34 -1 -27 15
-37 14 -55 -5z m37 -61 c-11 -16 -24 -28 -29 -28 -17 0 -15 52 2 69 15 16 18
16 32 2 15 -14 14 -18 -5 -43z m98 30 c10 -28 6 -53 -10 -53 -14 0 -43 50 -37
66 9 23 36 16 47 -13z"/>
<path d="M8441 4573 c-9 -10 -10 -17 -3 -22 6 -3 12 -22 14 -41 2 -24 9 -36
21 -38 9 -2 17 1 17 7 0 6 -7 11 -15 11 -10 0 -15 10 -15 30 0 20 5 30 15 30
8 0 15 5 15 10 0 6 -6 10 -14 10 -8 0 -16 4 -18 9 -1 5 -9 2 -17 -6z"/>
<path d="M9411 4573 c-9 -10 -10 -17 -3 -22 6 -3 12 -22 14 -41 2 -24 9 -36
21 -38 9 -2 17 1 17 7 0 6 -7 11 -15 11 -10 0 -15 10 -15 30 0 20 5 30 15 30
8 0 15 5 15 10 0 6 -6 10 -14 10 -8 0 -16 4 -18 9 -1 5 -9 2 -17 -6z"/>
<path d="M13100 4535 c0 -30 5 -55 10 -55 6 0 10 19 10 43 l1 42 17 -27 c9
-16 22 -28 28 -28 6 0 17 12 25 28 l14 27 3 -42 c5 -62 22 -53 22 12 0 64 -19
75 -45 25 -9 -16 -18 -30 -20 -30 -2 0 -11 14 -20 30 -26 50 -45 39 -45 -25z"/>
<path d="M13349 4573 c-4 -58 9 -93 34 -93 20 1 20 2 5 11 -10 5 -18 21 -18
34 0 14 7 25 18 28 16 4 16 5 0 6 -10 0 -18 8 -18 16 0 21 -20 19 -21 -2z"/>
<path d="M8513 4525 l2 -50 38 -2 37 -1 0 49 c0 27 -4 49 -10 49 -5 0 -10 -18
-10 -40 0 -33 -3 -40 -20 -40 -12 0 -21 8 -24 23 -13 57 -14 59 -13 12z"/>
<path d="M8631 4556 c-31 -37 9 -103 47 -80 36 23 23 94 -18 94 -10 0 -23 -6
-29 -14z m54 -36 c0 -18 -6 -26 -23 -28 -13 -2 -25 3 -28 12 -10 26 4 48 28
44 17 -2 23 -10 23 -28z"/>
<path d="M8777 4564 c-14 -14 -7 -25 11 -16 18 10 42 5 42 -8 0 -4 -14 -10
-31 -14 -25 -5 -30 -10 -27 -28 2 -19 9 -23 36 -23 33 -1 33 -1 30 45 -3 40
-6 45 -28 48 -14 2 -29 0 -33 -4z m53 -53 c0 -5 -7 -14 -15 -21 -18 -15 -42 1
-31 19 8 13 46 15 46 2z"/>
<path d="M8882 4558 c-17 -17 -15 -63 3 -78 8 -7 25 -10 40 -6 36 9 31 27 -5
20 -28 -6 -30 -5 -30 26 0 31 2 32 30 27 31 -7 42 6 14 17 -24 9 -39 7 -52 -6z"/>
<path d="M8984 4545 c-15 -23 -15 -27 0 -50 18 -28 47 -33 65 -11 10 12 6 14
-21 13 -29 -2 -33 1 -33 23 0 22 4 25 33 23 27 -1 31 1 21 13 -18 22 -47 17
-65 -11z"/>
<path d="M9092 4558 c-7 -7 -12 -24 -12 -38 0 -52 61 -71 82 -25 23 51 -32
101 -70 63z m58 -38 c0 -25 -4 -30 -24 -30 -26 0 -39 20 -30 45 4 8 17 15 30
15 20 0 24 -5 24 -30z"/>
<path d="M9190 4538 c0 -45 14 -63 50 -63 30 -1 30 0 29 50 l-2 50 -6 -40 c-5
-32 -11 -41 -28 -43 -21 -3 -23 1 -23 37 0 23 -4 41 -10 41 -5 0 -10 -15 -10
-32z"/>
<path d="M9300 4518 c0 -26 5 -48 10 -48 6 0 10 18 10 41 0 36 2 40 23 37 17
-2 23 -12 28 -43 7 -38 7 -38 5 10 l-1 50 -37 0 -38 1 0 -48z"/>
<path d="M13266 4557 c-12 -9 -17 -23 -14 -42 3 -26 8 -30 36 -33 17 -2 32 1
32 6 0 5 -10 8 -21 8 -12 -1 -24 5 -26 12 -3 8 6 12 26 12 34 0 39 11 15 34
-19 19 -25 20 -48 3z m39 -17 c3 -5 -3 -10 -14 -10 -12 0 -21 5 -21 10 0 6 6
10 14 10 8 0 18 -4 21 -10z"/>
<path d="M13428 4559 c-19 -10 -23 -45 -10 -67 5 -7 23 -11 40 -10 30 2 32 5
32 40 0 21 -4 38 -9 38 -5 0 -15 2 -23 5 -7 2 -21 0 -30 -6z m49 -25 c7 -19
-20 -49 -36 -40 -6 4 -11 18 -11 32 0 17 5 24 20 24 11 0 23 -7 27 -16z"/>
<path d="M5393 4490 c-19 -8 -23 -17 -23 -53 0 -34 6 -49 28 -70 15 -15 34
-27 42 -27 8 0 27 12 42 27 22 21 28 36 28 70 0 37 -4 45 -26 53 -31 12 -61
12 -91 0z m91 -16 c38 -15 -1 -114 -44 -114 -41 0 -82 99 -47 113 18 8 73 8
91 1z"/>
<path d="M5445 4430 c-14 -15 -21 -17 -32 -9 -8 7 -13 8 -13 1 0 -5 6 -15 13
-21 10 -8 20 -4 42 19 16 17 24 30 18 30 -5 0 -18 -9 -28 -20z"/>
<path d="M5653 4430 c0 -36 2 -50 4 -32 2 17 2 47 0 65 -2 17 -4 3 -4 -33z"/>
<path d="M5793 4476 c-11 -19 -4 -106 8 -106 5 0 9 18 9 40 0 25 5 40 13 40 8
0 7 4 -3 10 -13 9 -13 11 0 20 13 8 13 10 -2 10 -9 0 -21 -7 -25 -14z"/>
<path d="M6623 4430 c0 -36 2 -50 4 -32 2 17 2 47 0 65 -2 17 -4 3 -4 -33z"/>
<path d="M6943 4430 c0 -36 2 -50 4 -32 2 17 2 47 0 65 -2 17 -4 3 -4 -33z"/>
<path d="M7240 4471 c0 -14 -6 -17 -25 -14 -19 4 -25 0 -30 -20 -11 -43 2 -68
36 -65 28 2 29 3 29 60 0 32 -2 58 -5 58 -3 0 -5 -8 -5 -19z m-5 -56 c0 -23
-4 -30 -20 -30 -21 0 -31 25 -21 51 11 28 41 12 41 -21z"/>
<path d="M5691 4411 c1 -25 3 -37 6 -26 2 11 6 30 9 43 8 39 38 23 45 -23 l7
-40 -2 45 c-1 44 -2 45 -33 46 -33 1 -33 1 -32 -45z"/>
<path d="M5852 4448 c-16 -16 -15 -53 3 -68 33 -28 71 12 54 58 -9 24 -38 29
-57 10z m43 -33 c0 -23 -4 -30 -20 -30 -21 0 -31 25 -21 51 11 28 41 12 41
-21z"/>
<path d="M5942 4410 c1 -40 2 -41 5 -10 2 19 11 40 20 47 13 10 13 12 -6 10
-18 -1 -21 -7 -19 -47z"/>
<path d="M6001 4411 l2 -46 6 40 c4 26 11 40 21 40 10 0 17 -14 21 -40 l5 -40
5 40 c3 27 9 40 19 40 10 0 17 -14 21 -40 l7 -40 -2 45 -1 45 -52 1 -53 1 1
-46z"/>
<path d="M6146 4452 c-3 -5 4 -8 16 -8 12 1 23 -5 25 -11 3 -8 -5 -13 -20 -13
-25 0 -42 -23 -31 -41 3 -5 19 -8 35 -7 28 2 30 4 27 43 -2 32 -7 41 -25 43
-11 2 -24 -1 -27 -6z m42 -54 c-7 -19 -38 -22 -38 -4 0 10 9 16 21 16 12 0 19
-5 17 -12z"/>
<path d="M6248 4453 c22 -4 22 -5 4 -31 -36 -52 -36 -52 5 -51 35 1 36 2 10 8
l-29 6 21 27 c28 35 26 48 -6 47 -24 -2 -25 -2 -5 -6z"/>
<path d="M6313 4415 c0 -27 2 -38 4 -22 2 15 2 37 0 50 -2 12 -4 0 -4 -28z"/>
<path d="M6349 4439 c-8 -16 -8 -28 0 -45 18 -41 71 -25 71 21 0 44 -50 61
-71 24z m56 -8 c8 -26 -5 -53 -24 -49 -29 6 -27 68 3 68 8 0 17 -8 21 -19z"/>
<path d="M6440 4414 c0 -54 18 -59 22 -6 4 52 31 50 39 -3 l7 -40 -2 45 c-1
44 -2 45 -33 46 -32 1 -33 0 -33 -42z"/>
<path d="M6543 4415 c0 -27 2 -38 4 -22 2 15 2 37 0 50 -2 12 -4 0 -4 -28z"/>
<path d="M6658 4435 c-8 -19 -9 -31 -1 -43 12 -20 41 -28 55 -14 6 6 1 8 -15
5 -16 -3 -26 1 -30 11 -5 13 1 16 28 16 31 0 34 2 26 23 -12 33 -48 34 -63 2z
m50 -3 c2 -7 -6 -12 -17 -12 -21 0 -27 11 -14 24 9 9 26 2 31 -12z"/>
<path d="M6749 4439 c-8 -16 -8 -28 0 -46 9 -20 16 -24 37 -19 19 5 25 3 22
-6 -3 -7 -17 -13 -31 -13 -14 1 -23 -3 -21 -7 9 -14 52 -8 58 8 3 9 6 35 6 58
0 39 -2 42 -30 44 -21 2 -32 -4 -41 -19z m56 -10 c8 -24 -16 -55 -34 -45 -12
8 -15 49 -4 59 13 14 32 7 38 -14z"/>
<path d="M6856 4452 c-3 -5 4 -8 16 -8 12 1 23 -5 25 -11 3 -8 -5 -13 -20 -13
-25 0 -42 -23 -31 -41 3 -5 19 -8 35 -7 28 2 30 4 27 43 -2 32 -7 41 -25 43
-11 2 -24 -1 -27 -6z m42 -54 c-7 -19 -38 -22 -38 -4 0 10 9 16 21 16 12 0 19
-5 17 -12z"/>
<path d="M6983 4415 c0 -27 2 -38 4 -22 2 15 2 37 0 50 -2 12 -4 0 -4 -28z"/>
<path d="M7062 4448 c-13 -13 -15 -37 -6 -62 7 -17 49 -22 59 -7 3 6 -7 9 -21
8 -15 -1 -29 4 -31 11 -3 8 6 12 26 12 31 0 36 6 25 34 -7 19 -35 21 -52 4z
m46 -15 c2 -8 -6 -13 -22 -13 -25 0 -33 10 -19 24 10 10 36 3 41 -11z"/>
<path d="M7280 4415 c0 -25 5 -45 10 -45 6 0 10 20 10 45 0 25 -4 45 -10 45
-5 0 -10 -20 -10 -45z"/>
<path d="M7367 4453 c-14 -14 -6 -34 18 -43 33 -13 33 -34 -1 -27 -16 3 -22 1
-16 -5 15 -15 46 -5 50 15 2 11 -6 20 -23 27 -30 11 -24 34 7 24 14 -4 18 -2
14 5 -8 12 -39 15 -49 4z"/>
<path d="M7453 4415 c0 -27 2 -38 4 -22 2 15 2 37 0 50 -2 12 -4 0 -4 -28z"/>
<path d="M7490 4380 c0 -5 5 -10 11 -10 5 0 7 5 4 10 -3 6 -8 10 -11 10 -2 0
-4 -4 -4 -10z"/>
<path d="M7540 4380 c0 -5 5 -10 10 -10 6 0 10 5 10 10 0 6 -4 10 -10 10 -5 0
-10 -4 -10 -10z"/>
<path d="M8915 4100 c-24 -27 -25 -83 0 -110 25 -28 79 -27 100 2 11 16 12 24
4 27 -7 2 -16 -4 -21 -13 -14 -26 -57 -20 -70 9 -25 56 26 109 66 69 20 -20
35 -10 20 14 -17 26 -76 27 -99 2z"/>
<path d="M10060 4110 c0 -5 5 -10 10 -10 6 0 10 5 10 10 0 6 -4 10 -10 10 -5
0 -10 -4 -10 -10z"/>
<path d="M9300 4096 c0 -8 -6 -17 -12 -20 -10 -5 -10 -7 0 -12 6 -3 12 -17 12
-30 0 -14 5 -34 10 -45 11 -20 40 -27 40 -9 0 6 -4 10 -10 10 -15 0 -12 67 3
74 10 5 10 7 0 12 -7 3 -13 12 -13 20 0 8 -7 14 -15 14 -8 0 -15 -6 -15 -14z"/>
<path d="M9990 4096 c0 -8 -6 -17 -12 -19 -10 -4 -10 -8 -1 -14 6 -4 13 -26
15 -48 2 -33 7 -41 26 -43 12 -2 22 1 22 7 0 6 -7 11 -15 11 -10 0 -15 11 -15
35 0 24 5 35 15 35 8 0 15 5 15 10 0 6 -7 10 -15 10 -8 0 -15 7 -15 15 0 8 -4
15 -10 15 -5 0 -10 -6 -10 -14z"/>
<path d="M11250 4096 c0 -8 -6 -17 -12 -19 -10 -4 -10 -8 -1 -14 6 -4 13 -26
15 -48 2 -33 7 -41 26 -43 12 -2 22 1 22 7 0 6 -7 11 -15 11 -10 0 -15 11 -15
35 0 24 5 35 15 35 8 0 15 5 15 10 0 6 -7 10 -15 10 -8 0 -15 7 -15 15 0 8 -4
15 -10 15 -5 0 -10 -6 -10 -14z"/>
<path d="M9062 4068 c-17 -17 -15 -73 2 -87 18 -15 68 -11 73 6 3 7 -8 10 -28
10 -18 -1 -34 4 -36 11 -3 8 8 12 36 12 42 0 48 8 31 41 -12 22 -59 26 -78 7z
m58 -18 c0 -5 -12 -10 -26 -10 -14 0 -23 4 -19 10 3 6 15 10 26 10 10 0 19 -4
19 -10z"/>
<path d="M9170 4023 c0 -29 5 -53 10 -53 6 0 10 13 10 29 0 42 10 61 31 61 16
0 19 -8 19 -45 0 -33 4 -45 15 -45 11 0 15 11 15 36 0 57 -14 73 -60 71 l-40
-1 0 -53z"/>
<path d="M9370 4024 c0 -41 4 -54 15 -54 11 0 15 11 15 40 0 27 5 43 15 46 25
10 17 21 -15 22 -30 1 -30 0 -30 -54z"/>
<path d="M9462 4068 c-7 -7 -12 -26 -12 -43 0 -38 16 -55 50 -55 34 0 50 17
50 55 0 38 -16 55 -50 55 -14 0 -31 -5 -38 -12z m63 -27 c9 -29 -5 -52 -29
-49 -37 5 -34 68 3 68 11 0 22 -8 26 -19z"/>
<path d="M9632 4068 c-7 -7 -12 -27 -12 -45 0 -36 27 -58 60 -48 16 5 18 3 14
-10 -5 -13 -14 -15 -42 -10 -32 6 -34 5 -23 -9 16 -19 62 -21 79 -4 7 7 12 39
12 73 l0 62 -38 1 c-21 1 -44 -4 -50 -10z m63 -29 c10 -30 -18 -57 -39 -39
-16 13 -21 42 -9 53 14 14 42 6 48 -14z"/>
<path d="M9753 4054 c-15 -24 -15 -29 -2 -53 17 -31 60 -39 79 -16 11 14 9 15
-20 13 -19 -2 -35 2 -37 10 -3 8 7 12 31 12 28 0 36 4 36 18 0 46 -60 57 -87
16z m62 -4 c4 -6 -5 -10 -20 -10 -15 0 -24 4 -20 10 3 6 12 10 20 10 8 0 17
-4 20 -10z"/>
<path d="M9877 4074 c-17 -18 -6 -45 23 -55 43 -16 38 -33 -7 -24 -33 6 -35 5
-23 -10 21 -25 74 -16 78 13 3 18 -3 26 -27 35 -40 15 -40 31 0 23 22 -4 29
-2 27 7 -5 13 -60 22 -71 11z"/>
<path d="M10060 4025 c0 -30 5 -55 10 -55 6 0 10 25 10 55 0 30 -4 55 -10 55
-5 0 -10 -25 -10 -55z"/>
<path d="M10113 4054 c-15 -24 -15 -29 -2 -53 28 -49 99 -32 99 24 0 55 -67
75 -97 29z m62 -29 c0 -23 -4 -30 -20 -30 -21 0 -31 25 -21 51 11 28 41 12 41
-21z"/>
<path d="M10230 4023 c0 -29 5 -53 10 -53 6 0 10 13 10 29 0 42 10 61 31 61
16 0 19 -8 19 -45 0 -33 4 -45 15 -45 11 0 15 11 15 36 0 57 -14 73 -60 71
l-40 -1 0 -53z"/>
<path d="M10362 4068 c-16 -16 -15 -60 1 -82 15 -20 68 -19 75 1 2 9 -5 11
-26 7 -21 -4 -31 -2 -35 10 -5 13 1 16 33 16 41 0 47 8 30 41 -12 22 -59 26
-78 7z m63 -18 c4 -6 -7 -10 -25 -10 -18 0 -29 4 -25 10 3 6 15 10 25 10 10 0
22 -4 25 -10z"/>
<path d="M10533 4073 c-25 -9 -13 -22 16 -17 16 4 32 1 35 -5 5 -7 -2 -11 -16
-11 -34 0 -50 -14 -46 -41 3 -21 9 -24 46 -25 l42 -2 0 42 c0 23 -5 47 -12 54
-12 12 -43 15 -65 5z m51 -68 c-4 -8 -15 -15 -25 -15 -10 0 -19 7 -19 15 0 9
9 15 25 15 18 0 23 -4 19 -15z"/>
<path d="M10646 4064 c-34 -33 -9 -94 38 -94 24 0 54 26 43 37 -4 3 -13 0 -22
-7 -21 -18 -45 -5 -45 25 0 30 24 43 45 25 20 -17 32 -5 15 15 -16 20 -54 19
-74 -1z"/>
<path d="M10762 4068 c-7 -7 -12 -26 -12 -43 0 -17 5 -36 12 -43 17 -17 67
-15 75 3 8 22 -4 30 -22 15 -21 -18 -45 -5 -45 25 0 28 25 44 43 26 6 -6 17
-11 24 -11 11 0 11 5 3 20 -12 23 -59 27 -78 8z"/>
<path d="M10873 4054 c-15 -24 -15 -29 -2 -53 28 -49 99 -32 99 24 0 55 -67
75 -97 29z m62 -29 c0 -23 -4 -30 -20 -30 -21 0 -31 25 -21 51 11 28 41 12 41
-21z"/>
<path d="M10990 4036 c0 -52 12 -64 63 -64 l37 0 0 54 c0 40 -4 54 -14 54 -10
0 -16 -14 -18 -42 -2 -31 -8 -44 -20 -46 -15 -3 -18 4 -18 42 0 34 -4 46 -15
46 -11 0 -15 -12 -15 -44z"/>
<path d="M11110 4024 c0 -40 4 -54 14 -54 10 0 16 14 18 42 2 31 8 44 21 46
14 3 17 -4 17 -42 0 -34 4 -46 15 -46 11 0 15 12 15 44 0 52 -12 64 -62 64
l-38 0 0 -54z"/>
<path d="M5381 3984 c-24 -20 -31 -34 -31 -61 0 -46 45 -93 90 -93 43 0 90 47
90 90 0 22 -9 41 -29 61 -37 37 -79 38 -120 3z m111 -11 c23 -20 24 -80 1
-105 -20 -23 -80 -24 -105 -1 -23 20 -24 80 -1 105 20 23 80 24 105 1z"/>
<path d="M5414 3949 c-4 -8 0 -9 15 -4 22 7 30 -10 9 -18 -7 -2 -10 -7 -7 -11
9 -10 43 20 35 32 -9 15 -43 15 -52 1z"/>
<path d="M5661 3928 c-15 -48 -16 -58 -4 -40 19 28 53 29 60 2 3 -11 9 -20 14
-20 4 0 -1 27 -13 60 -11 33 -24 60 -28 60 -4 0 -17 -28 -29 -62z m42 12 c4
-15 0 -20 -15 -20 -14 0 -18 5 -14 16 3 9 6 20 6 25 0 17 17 1 23 -21z"/>
<path d="M6049 3968 c-5 -51 9 -98 29 -97 10 0 12 3 5 6 -16 6 -17 73 -2 73 6
0 4 7 -5 15 -18 18 -26 19 -27 3z"/>
<path d="M7168 3970 c-2 -7 -1 -31 2 -54 4 -31 10 -41 25 -44 18 -2 18 -2 3 8
-11 6 -18 23 -18 40 0 22 5 30 18 31 13 0 14 2 2 6 -8 3 -18 10 -21 16 -4 5
-8 4 -11 -3z"/>
<path d="M5767 3953 c-15 -14 -6 -34 19 -43 28 -11 23 -35 -7 -27 -11 3 -19 1
-19 -5 0 -5 12 -8 27 -6 38 4 43 35 9 48 -35 13 -34 34 0 26 17 -5 23 -3 19 4
-7 11 -38 14 -48 3z"/>
<path d="M5847 3953 c-14 -14 -6 -34 18 -43 33 -13 33 -34 -1 -27 -16 3 -22 1
-16 -5 15 -15 46 -5 50 15 2 11 -6 20 -23 27 -30 11 -24 34 7 24 14 -4 18 -2
14 5 -8 12 -39 15 -49 4z"/>
<path d="M5933 3915 c0 -27 2 -38 4 -22 2 15 2 37 0 50 -2 12 -4 0 -4 -28z"/>
<path d="M5964 3945 c-8 -20 4 -35 27 -35 11 0 19 -7 19 -16 0 -13 -6 -15 -27
-9 -21 5 -25 4 -17 -5 16 -16 48 -8 52 13 2 11 -6 20 -23 27 -29 11 -24 35 6
27 11 -3 17 -1 13 4 -8 14 -44 10 -50 -6z"/>
<path d="M6108 3935 c-8 -19 -9 -31 -1 -43 12 -20 41 -28 55 -14 6 6 1 8 -15
5 -16 -3 -26 1 -30 11 -5 13 1 16 28 16 31 0 34 2 26 23 -12 33 -48 34 -63 2z
m50 -3 c2 -7 -6 -12 -17 -12 -21 0 -27 11 -14 24 9 9 26 2 31 -12z"/>
<path d="M6201 3910 l2 -45 6 40 c4 27 12 41 24 43 14 3 17 -4 17 -37 0 -23 5
-41 10 -41 12 0 13 60 2 78 -5 6 -20 11 -35 10 -25 -2 -27 -5 -26 -48z"/>
<path d="M6308 3953 c27 -5 27 -11 2 -43 -27 -34 -25 -40 13 -39 23 1 26 3 10
6 -28 5 -28 11 -3 43 27 34 25 40 -12 39 -24 -1 -27 -3 -10 -6z"/>
<path d="M6375 3950 c-4 -7 2 -9 19 -4 20 5 26 2 26 -9 0 -9 -10 -17 -22 -19
-15 -2 -23 -10 -23 -23 0 -16 7 -20 33 -22 28 -1 32 2 32 24 0 13 -5 33 -10
44 -11 20 -45 26 -55 9z m45 -50 c0 -12 -28 -25 -36 -17 -9 9 6 27 22 27 8 0
14 -5 14 -10z"/>
<path d="M6504 3946 c-3 -8 -4 -27 -2 -43 2 -21 9 -29 27 -31 13 -2 28 1 34 7
7 7 2 10 -18 8 -15 -1 -30 4 -32 11 -3 8 6 12 26 12 19 0 31 5 31 13 0 32 -55
51 -66 23z m54 -13 c2 -8 -6 -13 -22 -13 -25 0 -33 10 -19 24 10 10 36 3 41
-11z"/>
<path d="M6637 3953 c-14 -14 -6 -34 18 -43 33 -13 33 -34 -1 -27 -16 3 -22 1
-16 -5 15 -15 46 -5 50 15 2 11 -6 20 -23 27 -30 11 -24 34 7 24 14 -4 18 -2
14 5 -8 12 -39 15 -49 4z"/>
<path d="M6724 3918 c1 -40 3 -43 29 -44 26 -1 27 1 26 45 l-2 46 -6 -40 c-9
-57 -38 -61 -44 -6 l-4 41 1 -42z"/>
<path d="M6811 3896 c1 -34 3 -53 6 -43 3 10 14 17 29 17 17 0 28 8 36 26 16
35 0 59 -41 60 l-31 1 1 -61z m58 37 c11 -21 -3 -53 -23 -53 -18 0 -28 27 -21
51 8 24 31 24 44 2z"/>
<path d="M6911 3896 c1 -34 3 -53 6 -43 3 10 14 17 29 17 17 0 28 8 36 26 16
35 0 59 -41 60 l-31 1 1 -61z m58 37 c11 -21 -3 -53 -23 -53 -18 0 -28 27 -21
51 8 24 31 24 44 2z"/>
<path d="M7014 3947 c-3 -9 -4 -28 -2 -44 3 -24 7 -28 33 -28 28 0 30 2 30 40
0 36 -3 40 -28 43 -17 2 -29 -2 -33 -11z m51 -32 c0 -23 -4 -30 -20 -30 -21 0
-31 25 -21 51 11 28 41 12 41 -21z"/>
<path d="M7112 3910 c1 -40 2 -41 5 -10 2 19 11 40 20 47 13 10 13 12 -6 10
-18 -1 -21 -7 -19 -47z"/>
<path d="M7232 3948 c-16 -16 -15 -53 3 -68 33 -28 71 12 54 58 -9 24 -38 29
-57 10z m43 -33 c0 -23 -4 -30 -20 -30 -21 0 -31 25 -21 51 11 28 41 12 41
-21z"/>
<path d="M8466 3930 c-125 -39 -121 -226 5 -260 79 -22 145 17 170 100 10 31
8 44 -9 83 -11 25 -31 52 -44 60 -31 20 -86 28 -122 17z m120 -54 c27 -27 34
-42 34 -73 0 -22 -6 -48 -14 -58 -12 -17 -14 -17 -37 -2 -13 10 -39 17 -59 17
-20 0 -46 -7 -59 -17 -23 -15 -25 -15 -37 2 -8 10 -14 36 -14 58 0 31 7 46 34
73 28 28 42 34 76 34 34 0 48 -6 76 -34z m-30 -151 c16 -13 17 -16 4 -25 -8
-5 -31 -10 -50 -10 -19 0 -42 5 -50 10 -13 9 -12 12 4 25 11 8 32 15 46 15 14
0 35 -7 46 -15z"/>
<path d="M8472 3858 c-7 -7 -12 -21 -12 -33 0 -28 19 -45 50 -45 31 0 50 17
50 45 0 28 -19 45 -50 45 -14 0 -31 -5 -38 -12z m58 -33 c0 -18 -5 -25 -20
-25 -15 0 -20 7 -20 25 0 18 5 25 20 25 15 0 20 -7 20 -25z"/>
<path d="M13330 3800 l0 -70 70 0 70 0 -1 33 c-2 30 -2 30 -6 5 -4 -27 -7 -28
-64 -28 l-59 0 0 59 c0 57 1 60 28 64 25 4 25 4 -5 6 l-33 1 0 -70z"/>
<path d="M13430 3861 c14 -4 27 -17 31 -31 6 -23 7 -22 8 8 1 30 -1 32 -31 31
-30 -1 -31 -2 -8 -8z"/>
<path d="M8901 3788 c1 -40 4 -61 6 -45 4 22 10 27 32 27 32 0 51 16 51 45 0
30 -19 45 -57 45 l-33 0 1 -72z m63 56 c26 -10 20 -53 -8 -60 -32 -8 -46 2
-46 30 0 35 17 44 54 30z"/>
<path d="M9689 3835 c-2 -82 -1 -106 4 -112 4 -3 7 26 7 65 0 40 -2 72 -5 72
-3 0 -5 -11 -6 -25z"/>
<path d="M11263 3790 c0 -41 2 -58 4 -37 2 20 2 54 0 75 -2 20 -4 3 -4 -38z"/>
<path d="M13419 3823 l-24 -28 28 24 c15 14 27 26 27 28 0 8 -8 1 -31 -24z"/>
<path d="M10922 3823 c-7 -7 -8 -13 -3 -13 5 0 11 -19 13 -42 2 -23 8 -43 16
-44 7 -1 8 0 2 3 -12 6 -13 80 -1 85 5 2 4 8 -3 14 -8 8 -15 7 -24 -3z"/>
<path d="M10982 3823 c-7 -7 -8 -13 -3 -13 5 0 11 -19 13 -42 2 -23 8 -43 16
-44 7 -1 8 0 2 3 -12 6 -13 80 -1 85 5 2 4 8 -3 14 -8 8 -15 7 -24 -3z"/>
<path d="M9026 3812 c-2 -4 7 -8 21 -7 33 0 42 -22 11 -28 l-23 -4 24 -2 c18
-1 22 -5 18 -21 -3 -11 -1 -23 4 -26 14 -8 11 70 -3 84 -14 14 -44 16 -52 4z"/>
<path d="M9127 3813 c-16 -15 -5 -35 23 -45 36 -12 34 -33 -3 -33 -14 1 -23
-3 -21 -7 9 -14 41 -9 55 8 11 14 10 18 -6 30 -10 8 -25 14 -32 14 -7 0 -13 7
-13 16 0 12 7 15 25 12 13 -3 22 -1 19 3 -6 11 -38 12 -47 2z"/>
<path d="M9222 3807 c-14 -16 -4 -32 26 -41 32 -11 29 -40 -4 -33 -16 3 -22 1
-16 -5 14 -14 46 -5 50 14 2 11 -8 23 -28 33 -34 18 -31 39 6 32 13 -2 21 0
18 4 -8 13 -40 11 -52 -4z"/>
<path d="M9411 3804 c0 -11 3 -14 6 -6 3 7 2 16 -1 19 -3 4 -6 -2 -5 -13z"/>
<path d="M9450 3801 c-23 -44 1 -88 43 -77 15 3 27 12 27 18 0 9 -3 9 -12 0
-31 -31 -67 2 -53 48 7 22 35 26 53 8 8 -8 12 -8 12 -1 0 12 -23 23 -45 23 -8
0 -19 -9 -25 -19z"/>
<path d="M9570 3810 c-8 -5 -12 -11 -10 -14 3 -2 14 2 24 10 22 15 10 19 -14
4z"/>
<path d="M9630 3805 c-7 -9 -10 -18 -6 -22 3 -3 6 -1 6 6 0 6 10 16 23 21 15
6 17 9 6 9 -9 1 -22 -6 -29 -14z"/>
<path d="M9823 3804 c-7 -19 4 -30 37 -37 23 -6 23 -5 -2 5 -36 15 -38 42 -3
36 13 -3 22 -1 19 3 -9 15 -44 10 -51 -7z"/>
<path d="M9966 3804 c-9 -8 -16 -24 -16 -34 0 -21 25 -50 44 -50 8 0 20 7 27
17 13 15 12 15 -8 3 -18 -11 -24 -12 -37 -1 -9 8 -16 21 -16 31 0 10 7 23 16
31 13 11 19 10 37 -1 20 -12 21 -12 8 3 -17 21 -35 22 -55 1z"/>
<path d="M10062 3778 c-1 -26 3 -50 9 -53 14 -10 59 3 59 16 0 8 -5 7 -15 -1
-25 -21 -44 -4 -48 42 l-4 43 -1 -47z"/>
<path d="M10180 3810 c-8 -5 -12 -11 -10 -14 3 -2 14 2 24 10 22 15 10 19 -14
4z"/>
<path d="M10242 3808 c-7 -7 -12 -24 -12 -38 0 -47 43 -67 71 -33 13 15 12 15
-7 3 -25 -15 -54 -7 -54 15 0 11 10 15 35 15 19 0 35 4 35 8 0 4 -16 6 -36 4
-28 -3 -35 -1 -32 9 3 8 17 14 31 14 14 -1 23 3 21 7 -8 12 -38 10 -52 -4z"/>
<path d="M10353 3813 c33 -5 33 -8 2 -49 -14 -18 -25 -35 -25 -38 0 -3 17 -5
38 -5 30 2 32 3 10 6 -34 5 -34 8 -3 49 14 18 25 35 25 38 0 3 -17 5 -37 5
-31 -2 -33 -3 -10 -6z"/>
<path d="M10443 3813 c33 -5 33 -8 2 -49 -14 -18 -25 -35 -25 -38 0 -3 17 -5
38 -5 30 2 32 3 10 6 -34 5 -34 8 -3 49 14 18 25 35 25 38 0 3 -17 5 -37 5
-31 -2 -33 -3 -10 -6z"/>
<path d="M10527 3813 c-3 -5 8 -8 23 -8 15 0 26 3 23 8 -2 4 -13 7 -23 7 -10
0 -21 -3 -23 -7z"/>
<path d="M10710 3801 c-23 -44 1 -88 43 -77 15 3 27 12 27 18 0 9 -3 9 -12 0
-18 -18 -46 -14 -53 8 -14 46 22 79 53 48 8 -8 12 -8 12 -1 0 12 -23 23 -45
23 -8 0 -19 -9 -25 -19z"/>
<path d="M10820 3801 c-23 -44 1 -88 43 -77 15 3 27 11 27 16 0 6 -8 5 -19 -2
-15 -9 -23 -9 -35 1 -25 21 -19 31 19 31 36 0 46 15 23 38 -18 18 -46 14 -58
-7z m58 -8 c2 -9 -7 -13 -27 -13 -23 0 -29 4 -24 16 6 17 44 15 51 -3z"/>
<path d="M11057 3813 c-3 -5 8 -8 23 -8 15 0 26 3 23 8 -2 4 -13 7 -23 7 -10
0 -21 -3 -23 -7z"/>
<path d="M11163 3813 c-7 -2 -13 -12 -13 -21 0 -14 1 -14 13 0 6 9 19 18 27
21 13 5 13 5 0 5 -8 0 -21 -2 -27 -5z"/>
<path d="M11221 3815 c-2 -5 -2 -20 -1 -33 2 -23 -15 -52 -31 -52 -4 0 -15 7
-23 16 -9 8 -16 11 -16 6 0 -5 7 -15 16 -23 12 -10 20 -10 35 -1 16 10 19 9
19 -7 0 -24 -36 -37 -55 -21 -10 9 -15 9 -15 1 0 -6 12 -14 26 -17 41 -10 56
13 51 82 -2 32 -5 55 -6 49z"/>
<path d="M11390 3750 c0 -40 2 -71 5 -68 8 8 10 127 2 134 -4 4 -7 -26 -7 -66z"/>
<path d="M11430 3813 c8 -3 21 -12 28 -21 11 -14 12 -14 12 0 0 16 -21 29 -43
27 -7 0 -5 -3 3 -6z"/>
<path d="M11512 3808 c-7 -7 -12 -24 -12 -38 0 -47 43 -67 71 -33 13 15 12 15
-7 3 -25 -15 -54 -7 -54 15 0 11 10 15 35 15 19 0 35 4 35 8 0 4 -16 6 -36 4
-28 -3 -35 -1 -32 9 3 8 17 14 31 14 14 -1 23 3 21 7 -8 12 -38 10 -52 -4z"/>
<path d="M11612 3765 c1 -46 2 -47 5 -10 2 22 11 45 20 52 13 10 13 12 -6 10
-19 -1 -21 -7 -19 -52z"/>
<path d="M11682 3807 c-14 -16 -4 -32 26 -41 32 -11 29 -40 -4 -33 -16 3 -22
1 -16 -5 14 -14 46 -5 50 14 2 11 -8 23 -28 33 -34 18 -31 39 6 32 13 -2 21 0
18 4 -8 13 -40 11 -52 -4z"/>
<path d="M11776 3804 c-9 -8 -16 -24 -16 -34 0 -22 25 -50 45 -50 20 0 45 28
45 50 0 22 -25 50 -45 50 -7 0 -21 -7 -29 -16z m52 -6 c17 -17 15 -43 -4 -59
-31 -26 -70 25 -44 56 15 18 32 19 48 3z"/>
<path d="M11882 3766 l1 -51 6 45 c5 36 10 46 28 48 19 3 22 -2 26 -45 l4 -48
-1 50 c-1 49 -1 50 -33 51 l-33 1 2 -51z"/>
<path d="M11996 3812 c-4 -6 3 -8 15 -5 12 4 25 0 31 -8 8 -12 9 -11 5 1 -4
17 -42 26 -51 12z"/>
<path d="M12133 3770 c0 -30 2 -43 4 -27 2 15 2 39 0 55 -2 15 -4 2 -4 -28z"/>
<path d="M9350 3800 c0 -5 5 -10 10 -10 6 0 10 5 10 10 0 6 -4 10 -10 10 -5 0
-10 -4 -10 -10z"/>
<path d="M14587 3790 c-109 -35 -166 -161 -118 -265 41 -90 149 -138 235 -105
l26 10 0 174 c0 103 -4 177 -10 181 -18 11 -105 15 -133 5z"/>
<path d="M9311 3774 c0 -11 3 -14 6 -6 3 7 2 16 -1 19 -3 4 -6 -2 -5 -13z"/>
<path d="M10558 3783 c-59 -9 -61 -65 -2 -60 31 2 34 5 34 35 0 17 -1 31 -2
31 -2 -1 -15 -4 -30 -6z m20 -25 c-7 -21 -36 -34 -49 -21 -6 6 -8 16 -5 22 10
15 59 14 54 -1z"/>
<path d="M11088 3783 c-59 -9 -61 -65 -2 -60 31 2 34 5 34 35 0 17 -1 31 -2
31 -2 -1 -15 -4 -30 -6z m20 -25 c-7 -21 -36 -34 -49 -21 -6 6 -8 16 -5 22 10
15 59 14 54 -1z"/>
<path d="M9401 3764 c0 -11 3 -14 6 -6 3 7 2 16 -1 19 -3 4 -6 -2 -5 -13z"/>
<path d="M11990 3765 c-15 -18 -6 -45 14 -45 23 0 46 11 46 23 0 7 -4 7 -12
-1 -19 -19 -50 -15 -46 6 2 11 13 17 31 17 15 -1 27 3 27 7 0 14 -47 9 -60 -7z"/>
<path d="M9620 3754 c0 -17 27 -37 42 -31 8 4 7 6 -4 6 -9 1 -22 9 -27 19 -6
9 -11 12 -11 6z"/>
<path d="M11461 3752 c-1 -7 -11 -17 -23 -22 -13 -5 -16 -9 -8 -9 23 -1 43 15
37 30 -4 11 -6 11 -6 1z"/>
<path d="M9320 3736 c0 -9 5 -16 10 -16 6 0 10 4 10 9 0 6 -4 13 -10 16 -5 3
-10 -1 -10 -9z"/>
<path d="M9874 3739 c-3 -6 -17 -9 -30 -6 -13 2 -21 0 -18 -4 8 -14 40 -10 54
6 7 8 10 15 7 15 -3 0 -9 -5 -13 -11z"/>
<path d="M9028 3728 c5 -5 16 -8 23 -6 8 3 3 7 -10 11 -17 4 -21 3 -13 -5z"/>
<path d="M9380 3730 c0 -5 5 -10 10 -10 6 0 10 5 10 10 0 6 -4 10 -10 10 -5 0
-10 -4 -10 -10z"/>
<path d="M9732 3720 c0 -14 2 -19 5 -12 2 6 2 18 0 25 -3 6 -5 1 -5 -13z"/>
<path d="M12171 3724 c0 -11 3 -14 6 -6 3 7 2 16 -1 19 -3 4 -6 -2 -5 -13z"/>
<path d="M9194 3588 c-5 -13 -7 -45 -3 -73 l6 -50 1 47 c2 35 6 48 20 51 16 4
16 5 0 6 -10 0 -18 5 -18 11 0 5 8 14 18 19 14 9 15 10 1 11 -9 0 -20 -10 -25
-22z"/>
<path d="M10043 3540 c0 -41 2 -58 4 -37 2 20 2 54 0 75 -2 20 -4 3 -4 -38z"/>
<path d="M10633 3540 c0 -41 2 -58 4 -37 2 20 2 54 0 75 -2 20 -4 3 -4 -38z"/>
<path d="M10182 3573 c-7 -7 -8 -13 -3 -13 5 0 11 -19 13 -42 2 -23 8 -43 16
-44 7 -1 8 0 2 3 -12 6 -13 80 -1 85 5 2 4 8 -3 14 -8 8 -15 7 -24 -3z"/>
<path d="M8902 3495 c0 -38 3 -58 5 -43 4 24 8 27 33 21 25 -4 31 -1 41 21 9
20 9 32 1 51 -10 21 -18 25 -47 23 l-35 -3 2 -70z m66 53 c17 -17 15 -43 -4
-59 -31 -26 -70 25 -44 56 15 18 32 19 48 3z"/>
<path d="M9030 3560 c-8 -5 -12 -11 -10 -14 3 -2 14 2 24 10 22 15 10 19 -14
4z"/>
<path d="M9092 3558 c-7 -7 -12 -24 -12 -38 0 -14 5 -31 12 -38 14 -14 44 -16
52 -4 2 4 -7 8 -22 7 -17 0 -28 6 -30 18 -3 14 4 17 32 17 39 0 41 2 26 31
-12 21 -40 25 -58 7z m52 -13 c4 -11 -2 -15 -24 -15 -29 0 -38 9 -23 23 12 12
41 7 47 -8z"/>
<path d="M9262 3558 c-7 -7 -12 -24 -12 -38 0 -14 5 -31 12 -38 14 -14 44 -16
52 -4 2 4 -7 8 -22 7 -17 0 -28 6 -30 18 -3 14 4 17 32 17 39 0 41 2 26 31
-12 21 -40 25 -58 7z m52 -13 c4 -11 -2 -15 -24 -15 -29 0 -38 9 -23 23 12 12
41 7 47 -8z"/>
<path d="M9352 3515 c1 -43 2 -45 5 -13 3 23 12 43 24 52 20 14 20 14 -5 12
-25 -1 -26 -4 -24 -51z"/>
<path d="M9432 3558 c-7 -7 -12 -24 -12 -38 0 -14 5 -31 12 -38 14 -14 44 -16
52 -4 2 4 -7 8 -22 7 -17 0 -28 6 -30 18 -3 14 4 17 32 17 39 0 41 2 26 31
-12 21 -40 25 -58 7z m52 -13 c4 -11 -2 -15 -24 -15 -29 0 -38 9 -23 23 12 12
41 7 47 -8z"/>
<path d="M9521 3520 l2 -55 7 45 c4 25 4 49 -1 55 -5 5 -8 -13 -8 -45z"/>
<path d="M9568 3560 c17 -8 22 -18 24 -52 l1 -43 4 38 c5 41 -10 67 -36 66
-11 0 -9 -3 7 -9z"/>
<path d="M9653 3561 l28 -6 -26 -34 c-33 -45 -32 -51 8 -50 32 1 32 1 4 8
l-28 6 26 34 c33 45 32 51 -7 50 -33 -1 -33 -1 -5 -8z"/>
<path d="M9732 3558 c-7 -7 -12 -24 -12 -38 0 -47 43 -67 71 -33 13 15 12 15
-7 3 -25 -15 -54 -7 -54 15 0 11 10 15 35 15 19 0 35 4 35 8 0 4 -16 6 -36 4
-28 -3 -35 -1 -32 9 3 8 17 14 31 14 14 -1 23 3 21 7 -8 12 -38 10 -52 -4z"/>
<path d="M9872 3515 c1 -46 2 -47 5 -11 3 22 11 45 19 51 13 9 12 11 -5 11
-19 0 -21 -6 -19 -51z"/>
<path d="M9946 3562 c-2 -4 7 -8 21 -7 14 0 28 -6 31 -14 3 -10 -4 -12 -32 -9
-39 4 -45 -6 -26 -43 13 -24 43 -25 61 -1 11 14 11 15 -1 5 -13 -12 -50 -18
-50 -9 0 2 -3 11 -6 20 -5 13 1 16 30 16 37 0 47 15 24 38 -14 14 -44 16 -52
4z"/>
<path d="M10085 3561 c-3 -6 7 -9 21 -8 38 3 41 -19 4 -27 -25 -5 -31 -10 -28
-28 2 -13 10 -23 18 -24 10 -1 10 1 2 3 -21 7 -9 38 17 41 20 3 23 0 18 -17
-3 -12 -1 -24 4 -27 5 -3 9 15 9 39 0 32 -5 47 -16 51 -23 9 -42 7 -49 -3z"/>
<path d="M10253 3520 c0 -30 2 -43 4 -27 2 15 2 39 0 55 -2 15 -4 2 -4 -28z"/>
<path d="M10286 3557 c3 -10 9 -15 12 -12 3 3 0 11 -7 18 -10 9 -11 8 -5 -6z"/>
<path d="M10351 3554 c0 -11 3 -14 6 -6 3 7 2 16 -1 19 -3 4 -6 -2 -5 -13z"/>
<path d="M10396 3562 c-2 -4 7 -8 21 -7 14 0 28 -6 31 -14 3 -10 -4 -12 -32
-9 -39 4 -45 -6 -26 -43 13 -24 43 -25 61 -1 11 14 11 15 -1 5 -13 -12 -50
-18 -50 -9 0 2 -3 11 -6 20 -5 13 1 16 30 16 37 0 47 15 24 38 -14 14 -44 16
-52 4z"/>
<path d="M10535 3561 c-3 -6 7 -9 21 -8 38 3 41 -19 4 -27 -25 -5 -31 -10 -28
-28 2 -13 10 -23 18 -24 10 -1 10 1 2 3 -21 7 -9 38 17 41 20 3 23 0 18 -17
-3 -12 -1 -24 4 -27 5 -3 9 15 9 39 0 32 -5 47 -16 51 -23 9 -42 7 -49 -3z"/>
<path d="M10720 3551 c-23 -44 1 -88 43 -77 15 3 27 11 27 16 0 6 -8 5 -19 -2
-15 -9 -23 -9 -35 1 -25 21 -19 31 19 31 36 0 46 15 23 38 -18 18 -46 14 -58
-7z m58 -8 c2 -9 -7 -13 -27 -13 -23 0 -29 4 -24 16 6 17 44 15 51 -3z"/>
<path d="M10912 3516 l1 -51 6 45 c5 36 10 46 28 48 19 3 22 -2 26 -45 l4 -48
-1 50 c-1 49 -1 50 -33 51 l-33 1 2 -51z"/>
<path d="M11022 3557 c-14 -16 -4 -32 26 -41 32 -11 29 -40 -4 -33 -16 3 -22
1 -16 -5 14 -14 46 -5 50 14 2 11 -8 23 -28 33 -34 18 -31 39 6 32 13 -2 21 0
18 4 -8 13 -40 11 -52 -4z"/>
<path d="M11122 3558 c-7 -7 -12 -24 -12 -38 0 -14 5 -31 12 -38 14 -14 44
-16 52 -4 2 4 -7 8 -22 7 -17 0 -28 6 -30 18 -3 14 4 17 32 17 39 0 41 2 26
31 -12 21 -40 25 -58 7z m52 -13 c4 -11 -2 -15 -24 -15 -29 0 -38 9 -23 23 12
12 41 7 47 -8z"/>
<path d="M11230 3560 c-8 -5 -12 -11 -10 -14 3 -2 14 2 24 10 22 15 10 19 -14
4z"/>
<path d="M11303 3561 l28 -6 -26 -34 c-33 -45 -32 -51 8 -50 30 2 30 2 5 6
l-28 4 25 37 c32 47 32 52 -7 51 -33 -1 -33 -1 -5 -8z"/>
<path d="M11373 3520 c0 -30 2 -43 4 -27 2 15 2 39 0 55 -2 15 -4 2 -4 -28z"/>
<path d="M11420 3551 c-23 -44 1 -88 43 -77 15 3 27 12 27 18 0 9 -3 9 -12 0
-18 -18 -46 -14 -53 8 -14 46 22 79 53 48 8 -8 12 -8 12 -1 0 12 -23 23 -45
23 -8 0 -19 -9 -25 -19z"/>
<path d="M11521 3520 l2 -55 7 45 c4 25 4 49 -1 55 -5 5 -8 -13 -8 -45z"/>
<path d="M11568 3560 c17 -8 22 -18 24 -52 l1 -43 4 38 c5 41 -10 67 -36 66
-11 0 -9 -3 7 -9z"/>
<path d="M11633 3520 c0 -30 2 -43 4 -27 2 15 2 39 0 55 -2 15 -4 2 -4 -28z"/>
<path d="M10312 3488 c2 -5 8 -9 13 -9 5 0 11 4 13 9 1 5 -4 9 -13 9 -9 0 -14
-4 -13 -9z"/>
<path d="M8300 2940 l0 -70 40 0 c22 0 40 5 40 10 0 6 -13 10 -30 10 l-30 0 0
60 c0 33 -4 60 -10 60 -6 0 -10 -30 -10 -70z"/>
<path d="M8410 3000 c0 -5 5 -10 11 -10 5 0 7 5 4 10 -3 6 -8 10 -11 10 -2 0
-4 -4 -4 -10z"/>
<path d="M8413 2920 c0 -30 2 -43 4 -27 2 15 2 39 0 55 -2 15 -4 2 -4 -28z"/>
<path d="M8461 2915 l2 -50 6 40 c5 31 11 41 28 43 19 3 22 -2 26 -40 4 -40 4
-39 3 7 -1 49 -1 50 -33 50 l-33 1 1 -51z"/>
<path d="M8571 2957 c-16 -16 -13 -53 5 -71 19 -19 26 -20 43 -3 10 10 12 8 9
-8 -3 -16 -11 -20 -36 -18 -27 1 -31 -1 -21 -13 17 -20 57 -17 69 5 5 11 10
42 10 68 0 49 0 49 -34 50 -19 1 -39 -4 -45 -10z m59 -32 c0 -32 -28 -45 -46
-21 -17 24 -7 46 22 46 19 0 24 -5 24 -25z"/>
<path d="M8684 2925 c1 -49 1 -50 34 -50 l32 -1 -1 51 -2 50 -6 -40 c-5 -31
-11 -41 -28 -43 -19 -3 -22 2 -26 40 -4 40 -4 39 -3 -7z"/>
<path d="M8797 2963 c-14 -13 -7 -25 8 -13 8 6 19 9 25 5 16 -10 12 -25 -9
-25 -24 0 -45 -25 -37 -45 4 -10 17 -14 41 -13 33 3 35 5 35 39 0 19 -5 40
-12 47 -13 13 -41 16 -51 5z m43 -57 c0 -8 -5 -18 -11 -22 -14 -8 -33 11 -25
25 10 16 36 13 36 -3z"/>
<path d="M9947 2523 c-4 -3 -7 -14 -7 -24 0 -9 -6 -20 -12 -23 -10 -5 -10 -7
0 -12 7 -3 12 -24 12 -50 0 -24 5 -44 10 -44 6 0 10 20 10 45 0 33 4 45 15 45
8 0 15 5 15 10 0 6 -7 10 -15 10 -8 0 -15 7 -15 15 0 8 7 15 15 15 8 0 15 5
15 10 0 11 -33 14 -43 3z"/>
<path d="M8900 2445 l0 -75 50 0 c58 0 68 17 13 22 l-38 3 -3 63 c-4 88 -22
78 -22 -13z"/>
<path d="M9020 2510 c0 -5 7 -10 15 -10 8 0 15 5 15 10 0 6 -7 10 -15 10 -8 0
-15 -4 -15 -10z"/>
<path d="M10200 2510 c0 -5 7 -10 15 -10 8 0 15 5 15 10 0 6 -7 10 -15 10 -8
0 -15 -4 -15 -10z"/>
<path d="M10260 2496 c0 -8 -6 -17 -12 -20 -10 -5 -10 -7 0 -12 6 -3 12 -17
12 -30 0 -14 5 -34 10 -45 11 -20 40 -27 40 -9 0 6 -4 10 -10 10 -15 0 -12 67
3 74 10 5 10 7 0 12 -7 3 -13 12 -13 20 0 8 -7 14 -15 14 -8 0 -15 -6 -15 -14z"/>
<path d="M9020 2425 c0 -30 5 -55 10 -55 6 0 10 25 10 55 0 30 -4 55 -10 55
-5 0 -10 -25 -10 -55z"/>
<path d="M9070 2423 c0 -29 5 -53 10 -53 6 0 10 13 10 29 0 42 10 61 31 61 16
0 19 -8 19 -45 0 -33 4 -45 15 -45 11 0 15 11 15 36 0 57 -14 73 -60 71 l-40
-1 0 -53z"/>
<path d="M9202 2468 c-17 -17 -15 -64 4 -83 11 -11 25 -14 41 -10 18 4 24 2
20 -7 -2 -8 -18 -12 -42 -11 -32 2 -35 1 -25 -12 15 -18 61 -20 78 -3 7 7 12
39 12 73 l0 62 -38 1 c-21 1 -44 -4 -50 -10z m66 -34 c2 -11 -4 -27 -13 -34
-22 -19 -50 9 -40 39 9 29 49 25 53 -5z"/>
<path d="M9322 2428 l3 -53 43 -1 42 -2 0 54 c0 64 -17 73 -22 12 -2 -35 -7
-43 -23 -43 -16 0 -21 8 -23 43 -2 23 -8 42 -13 42 -6 0 -9 -22 -7 -52z"/>
<path d="M9453 2473 c-25 -9 -13 -22 16 -17 16 4 32 1 35 -5 5 -7 -2 -11 -16
-11 -34 0 -50 -14 -46 -41 3 -21 9 -24 46 -25 l42 -2 0 42 c0 23 -5 47 -12 54
-12 12 -43 15 -65 5z m51 -68 c-4 -8 -15 -15 -25 -15 -10 0 -19 7 -19 15 0 9
9 15 25 15 18 0 23 -4 19 -15z"/>
<path d="M9600 2403 c0 -42 4 -73 10 -73 6 0 10 11 10 25 0 22 3 24 29 19 24
-5 32 -1 47 21 16 25 16 30 3 54 -12 21 -22 26 -57 27 l-42 1 0 -74z m75 22
c0 -23 -5 -30 -19 -30 -28 0 -43 29 -26 50 21 25 45 14 45 -20z"/>
<path d="M9730 2423 c0 -29 5 -53 10 -53 6 0 10 13 10 29 0 39 9 61 26 61 8 0
14 4 14 9 0 5 -13 9 -30 9 -29 -1 -30 -2 -30 -55z"/>
<path d="M9816 2464 c-34 -33 -9 -94 38 -94 13 0 29 7 36 15 11 13 8 15 -20
13 -19 -2 -35 2 -37 10 -3 8 7 12 31 12 28 0 36 4 36 18 0 40 -54 57 -84 26z
m59 -14 c4 -6 -5 -10 -19 -10 -14 0 -26 5 -26 10 0 6 9 10 19 10 11 0 23 -4
26 -10z"/>
<path d="M10012 2468 c-16 -16 -15 -60 1 -82 15 -20 68 -19 75 1 2 9 -5 11
-26 7 -21 -4 -31 -2 -35 10 -5 13 1 16 33 16 41 0 47 8 30 41 -12 22 -59 26
-78 7z m63 -18 c4 -6 -7 -10 -25 -10 -18 0 -29 4 -25 10 3 6 15 10 25 10 10 0
22 -4 25 -10z"/>
<path d="M10120 2424 c0 -41 4 -54 15 -54 11 0 15 11 15 40 0 27 5 43 15 46
25 10 17 21 -15 22 -30 1 -30 0 -30 -54z"/>
<path d="M10200 2425 c0 -42 3 -55 15 -55 12 0 15 13 15 55 0 42 -3 55 -15 55
-12 0 -15 -13 -15 -55z"/>
<path d="M10347 2474 c-15 -16 -6 -23 23 -17 19 3 30 1 30 -6 0 -6 -11 -11
-24 -11 -30 0 -50 -23 -41 -49 5 -17 14 -21 46 -19 l40 1 -3 51 c-3 49 -4 51
-33 54 -17 2 -34 0 -38 -4z m51 -66 c-7 -19 -38 -22 -38 -4 0 10 9 16 21 16
12 0 19 -5 17 -12z"/>
<path d="M8409 2433 c-31 -80 -37 -103 -28 -108 5 -4 12 1 15 9 8 21 70 22 78
1 3 -8 11 -15 17 -15 13 0 6 37 -21 98 -22 49 -46 54 -61 15z m46 -40 c5 -20
3 -23 -19 -23 -24 0 -24 2 -14 31 11 32 21 29 33 -8z"/>
<path d="M8531 2421 c-8 -14 -6 -22 8 -35 22 -20 31 -20 31 0 0 11 5 14 16 10
9 -3 18 -6 20 -6 2 0 4 -9 4 -20 0 -11 5 -20 10 -20 14 0 13 43 -2 58 -7 7
-20 12 -30 12 -10 0 -18 5 -18 10 0 17 -29 11 -39 -9z"/>
<path d="M13390 2350 l35 -30 -35 -30 c-19 -16 -30 -30 -25 -30 6 1 26 14 45
30 l34 30 -34 30 c-19 16 -39 29 -45 30 -5 0 6 -13 25 -30z"/>
<path d="M8560 2325 c0 -10 -10 -15 -30 -15 -20 0 -30 -5 -30 -15 0 -8 4 -15
8 -15 4 0 15 -15 23 -34 15 -33 15 -35 -5 -40 -33 -9 -11 -18 48 -19 39 -2 56
2 56 10 0 7 -7 13 -15 13 -17 0 -20 16 -5 25 6 3 10 14 10 25 0 10 7 21 16 24
24 9 6 26 -27 26 -19 0 -29 5 -29 15 0 8 -4 15 -10 15 -5 0 -10 -7 -10 -15z
m40 -53 c0 -5 -7 -17 -15 -28 -13 -16 -16 -17 -25 -4 -17 25 -11 40 15 40 14
0 25 -4 25 -8z"/>
<path d="M8390 2264 c0 -19 7 -28 30 -37 17 -6 30 -15 30 -19 0 -16 30 -8 39
11 8 14 6 22 -8 35 -22 20 -31 20 -31 0 0 -11 -5 -14 -16 -10 -9 3 -18 6 -20
6 -2 0 -4 9 -4 20 0 11 -4 20 -10 20 -5 0 -10 -12 -10 -26z"/>
<path d="M8903 2190 c0 -41 2 -58 4 -37 2 20 2 54 0 75 -2 20 -4 3 -4 -38z"/>
<path d="M9123 2190 c0 -41 2 -58 4 -37 2 20 2 54 0 75 -2 20 -4 3 -4 -38z"/>
<path d="M8952 2223 c-7 -7 -8 -13 -3 -13 5 0 11 -19 13 -42 2 -23 8 -43 16
-44 7 -1 8 0 2 3 -12 6 -13 80 -1 85 5 2 4 8 -3 14 -8 8 -15 7 -24 -3z"/>
<path d="M9027 2213 c-3 -5 8 -8 23 -8 15 0 26 3 23 8 -2 4 -13 7 -23 7 -10 0
-21 -3 -23 -7z"/>
<path d="M9163 2170 c0 -30 2 -43 4 -27 2 15 2 39 0 55 -2 15 -4 2 -4 -28z"/>
<path d="M9205 2211 c-3 -6 7 -9 21 -8 38 3 41 -19 4 -27 -25 -5 -31 -10 -28
-28 2 -13 10 -23 18 -24 10 -1 10 1 2 3 -21 7 -9 38 17 41 20 3 23 0 18 -17
-3 -12 -1 -24 4 -27 5 -3 9 15 9 39 0 32 -5 47 -16 51 -23 9 -42 7 -49 -3z"/>
<path d="M9323 2214 c-7 -3 -13 -10 -13 -16 0 -6 6 -6 15 2 25 21 43 4 48 -42
4 -40 4 -39 3 7 -1 42 -4 50 -21 52 -11 1 -26 -1 -32 -3z"/>
<path d="M9421 2206 c-31 -37 9 -103 47 -80 36 23 23 94 -18 94 -10 0 -23 -6
-29 -14z m54 -36 c0 -31 -3 -35 -25 -35 -19 0 -26 6 -28 23 -5 36 5 54 30 50
19 -2 23 -9 23 -38z"/>
<path d="M9058 2183 c-59 -9 -61 -65 -2 -60 31 2 34 5 34 35 0 17 -1 31 -2 31
-2 -1 -15 -4 -30 -6z m20 -25 c-7 -21 -36 -34 -49 -21 -6 6 -8 16 -5 22 10 15
59 14 54 -1z"/>
<path d="M8335 1648 c-28 -78 -42 -128 -35 -128 5 0 12 9 15 20 4 14 15 20 35
20 20 0 31 -6 35 -20 3 -11 10 -20 15 -20 5 0 -1 30 -14 67 -22 65 -41 88 -51
61z m29 -30 c9 -35 8 -38 -15 -38 -15 0 -19 4 -15 16 3 9 6 22 6 30 0 22 17
16 24 -8z"/>
<path d="M8748 1628 c-15 -39 19 -125 40 -103 4 4 1 10 -5 12 -17 6 -17 60 -1
65 9 3 8 9 -4 21 -20 20 -24 21 -30 5z"/>
<path d="M8813 1625 c-6 -7 -8 -16 -3 -21 5 -5 10 -25 12 -44 2 -24 9 -36 21
-38 9 -2 17 1 17 7 0 6 -7 11 -15 11 -10 0 -15 10 -15 30 0 20 5 30 15 30 8 0
15 5 15 10 0 6 -6 10 -14 10 -8 0 -16 4 -18 9 -1 5 -8 3 -15 -4z"/>
<path d="M8437 1613 c-16 -15 -6 -41 18 -47 14 -4 25 -11 25 -16 0 -16 -21
-22 -35 -10 -10 8 -15 9 -15 2 0 -17 19 -24 46 -18 33 9 28 36 -10 54 -18 9
-25 17 -18 24 6 6 18 6 33 -3 22 -11 23 -11 10 4 -14 17 -42 22 -54 10z"/>
<path d="M8532 1550 c1 -41 3 -62 5 -47 4 23 8 27 24 22 27 -9 49 12 49 45 0
37 -25 58 -50 42 -14 -9 -20 -8 -23 1 -3 7 -5 -22 -5 -63z m63 20 c0 -18 -6
-26 -23 -28 -13 -2 -25 3 -28 12 -10 26 4 48 28 44 17 -2 23 -10 23 -28z"/>
<path d="M8646 1599 c-32 -47 28 -107 64 -64 15 18 -1 20 -18 3 -8 -8 -15 -8
-27 2 -24 20 -18 30 20 30 36 0 46 15 23 38 -18 18 -45 14 -62 -9z m52 -7 c2
-7 -7 -12 -23 -12 -24 0 -26 2 -15 15 14 17 31 16 38 -3z"/>
<path d="M8891 1606 c-31 -37 9 -103 47 -80 36 23 23 94 -18 94 -10 0 -23 -6
-29 -14z m54 -36 c0 -18 -6 -26 -23 -28 -13 -2 -25 3 -28 12 -10 26 4 48 28
44 17 -2 23 -10 23 -28z"/>
<path d="M9160 1160 c0 -11 5 -20 10 -20 6 0 10 9 10 20 0 11 -4 20 -10 20 -5
0 -10 -9 -10 -20z"/>
<path d="M10828 1164 c-52 -27 -74 -109 -44 -162 44 -80 170 -81 212 -1 18 35
6 61 -16 34 -20 -24 -77 -19 -106 11 -26 26 -28 51 -9 112 8 26 1 27 -37 6z
m8 -65 c0 -34 6 -47 33 -71 26 -24 41 -29 67 -26 39 5 43 -4 12 -26 -64 -45
-158 4 -158 81 0 36 22 83 38 83 4 0 7 -19 8 -41z"/>
<path d="M9080 1141 c0 -13 26 -32 33 -24 8 7 -11 33 -24 33 -5 0 -9 -4 -9 -9z"/>
<path d="M9231 1137 c-6 -8 -8 -17 -4 -20 7 -8 33 11 33 24 0 13 -16 11 -29
-4z"/>
<path d="M12436 1073 c-10 -32 -21 -64 -23 -70 -3 -7 0 -13 7 -13 6 0 14 9 17
20 4 13 14 20 30 20 16 0 27 -7 30 -20 3 -11 11 -20 19 -20 18 0 -28 134 -47
138 -10 2 -21 -16 -33 -55z m47 -3 c4 -15 0 -20 -15 -20 -14 0 -18 5 -14 16 3
9 6 20 6 25 0 17 17 1 23 -21z"/>
<path d="M9130 1100 c-11 -11 -20 -29 -20 -40 0 -26 34 -60 60 -60 26 0 60 34
60 60 0 26 -34 60 -60 60 -11 0 -29 -9 -40 -20z m70 -15 c26 -32 -13 -81 -47
-59 -35 22 -23 74 17 74 10 0 23 -7 30 -15z"/>
<path d="M12656 1099 c-11 -13 -14 -24 -8 -28 6 -3 12 -22 14 -41 2 -27 8 -36
26 -38 12 -2 22 1 22 7 0 6 -7 11 -15 11 -10 0 -15 10 -15 30 0 20 5 30 15 30
8 0 15 5 15 10 0 6 -6 10 -14 10 -8 0 -16 7 -18 15 -2 13 -7 12 -22 -6z"/>
<path d="M12540 1053 c0 -52 10 -63 53 -61 l37 1 0 49 c0 26 -4 48 -10 48 -5
0 -10 -12 -10 -27 0 -37 -14 -57 -34 -50 -10 4 -16 19 -16 42 0 19 -4 35 -10
35 -5 0 -10 -17 -10 -37z"/>
<path d="M12732 1078 c-7 -7 -12 -24 -12 -38 0 -31 17 -50 45 -50 28 0 45 19
45 50 0 31 -17 50 -45 50 -12 0 -26 -5 -33 -12z m53 -38 c0 -29 -32 -41 -41
-16 -9 24 4 48 23 44 12 -2 18 -12 18 -28z"/>
<path d="M9050 1060 c0 -5 9 -10 20 -10 11 0 20 5 20 10 0 6 -9 10 -20 10 -11
0 -20 -4 -20 -10z"/>
<path d="M9250 1060 c0 -5 9 -10 20 -10 11 0 20 5 20 10 0 6 -9 10 -20 10 -11
0 -20 -4 -20 -10z"/>
<path d="M9090 995 c-18 -21 -3 -32 16 -13 10 9 12 18 6 22 -5 3 -15 -1 -22
-9z"/>
<path d="M9226 1002 c-7 -12 22 -38 31 -28 4 3 0 14 -9 22 -9 10 -18 12 -22 6z"/>
<path d="M9160 960 c0 -11 5 -20 10 -20 6 0 10 9 10 20 0 11 -4 20 -10 20 -5
0 -10 -9 -10 -20z"/>
</g>
</svg>
